<?xml version="1.0" encoding="UTF-8"?>
<svg version="1.1" xmlns="http://www.w3.org/2000/svg" width="512" height="512">
<path d="M0 0 C10.95203237 10.22992034 21.10976678 20.71656091 29.95507812 32.82617188 C30.81313964 33.97722204 31.67121264 35.12826365 32.52929688 36.27929688 C57.33836382 69.93288359 72.99783883 110.14667745 76.95507812 151.82617188 C77.06464844 152.82003906 77.17421875 153.81390625 77.28710938 154.83789062 C83.21266687 216.54269596 63.03580433 278.56682655 24.06445312 326.34570312 C19.84065551 331.31257625 15.44476644 336.10049086 10.95507812 340.82617188 C10.4481543 341.36177734 9.94123047 341.89738281 9.41894531 342.44921875 C1.51342376 350.74434492 -6.83958046 358.01146375 -16.04492188 364.82617188 C-16.61855469 365.25526855 -17.1921875 365.68436523 -17.78320312 366.12646484 C-52.38272479 391.91013774 -92.2908197 406.84393605 -135.04492188 411.82617188 C-136.17800781 411.95894531 -137.31109375 412.09171875 -138.47851562 412.22851562 C-200.03551172 418.07202761 -262.50819709 397.99367113 -310.04492188 358.82617188 C-314.59393506 354.8878794 -318.95408667 350.75889968 -323.26318359 346.56103516 C-324.99355315 344.87618916 -326.73896396 343.20820248 -328.48632812 341.54101562 C-336.10650104 334.18698641 -342.75748188 326.34113173 -349.04492188 317.82617188 C-349.66753906 316.98699219 -350.29015625 316.1478125 -350.93164062 315.28320312 C-387.26569194 264.72043241 -403.42110826 201.5373969 -393.55615234 139.765625 C-389.6618322 117.36719388 -383.63883725 96.4424393 -374.04492188 75.82617188 C-373.53807861 74.72982422 -373.53807861 74.72982422 -373.02099609 73.61132812 C-365.28720099 57.05707612 -355.34743953 42.14671828 -344.04492188 27.82617188 C-343.60599609 27.26865234 -343.16707031 26.71113281 -342.71484375 26.13671875 C-331.7692208 12.38366885 -319.13338288 -0.63793294 -305.04492188 -11.17382812 C-304.0059375 -11.95628906 -302.96695313 -12.73875 -301.89648438 -13.54492188 C-266.5684311 -39.67526028 -226.57172821 -54.97122728 -183.04492188 -60.17382812 C-182.00851563 -60.30660156 -180.97210938 -60.439375 -179.90429688 -60.57617188 C-115.34135131 -67.46666168 -47.59380996 -43.72278058 0 0 Z " fill="#FE7E01" transform="translate(415.044921875,80.173828125)"/>
<path d="M0 0 C1.25006836 -0.01836914 1.25006836 -0.01836914 2.52539062 -0.03710938 C7.29409011 -0.04841854 11.08012805 0.37177085 15.5625 2.1875 C16.67625 2.55875 17.79 2.93 18.9375 3.3125 C19.80375 3.60125 20.67 3.89 21.5625 4.1875 C21.8125 7.4375 21.8125 7.4375 21.5625 11.1875 C20.881875 11.785625 20.20125 12.38375 19.5 13 C17.34052968 14.9876869 17.34052968 14.9876869 17.4140625 17.4765625 C17.81309459 22.48663205 18.64763748 26.00530595 21.5625 30.1875 C21.5625 33.1875 21.5625 33.1875 20.1875 34.625 C19.65125 35.140625 19.115 35.65625 18.5625 36.1875 C16.33657802 39.6500453 16.09440025 43.16025528 15.5625 47.1875 C13.17294676 49.57705324 7.27355401 49.46365579 3.90820312 49.99414062 C-1.60513845 50.7262907 -1.60513845 50.7262907 -6.4375 53.1875 C-7.35349427 55.59154738 -7.35349427 55.59154738 -7.6875 58.3125 C-7.83703125 59.22257812 -7.9865625 60.13265625 -8.140625 61.0703125 C-8.28757812 62.11832031 -8.28757812 62.11832031 -8.4375 63.1875 C-7.7775 63.1875 -7.1175 63.1875 -6.4375 63.1875 C-2.76851705 71.74846022 -1.73827227 81.7169944 -4.12890625 90.8203125 C-5.92579809 94.77497823 -8.23571351 97.03491854 -11.72265625 99.65234375 C-16.54874468 103.97273727 -20.78962992 110.01176842 -23.125 116.0625 C-24.66105402 119.71977148 -26.47619796 121.57873391 -29.4375 124.1875 C-30.241875 124.909375 -31.04625 125.63125 -31.875 126.375 C-34.4375 128.1875 -34.4375 128.1875 -37.6875 129.25 C-38.595 129.559375 -39.5025 129.86875 -40.4375 130.1875 C-40.7675 131.1775 -41.0975 132.1675 -41.4375 133.1875 C-43.24631483 133.88319801 -45.06283365 134.56194925 -46.90234375 135.171875 C-49.90883365 136.37632396 -52.48293485 138.00535056 -55.25 139.6875 C-61.64681169 143.26461509 -67.64599077 144.38887046 -74.90161133 145.125 C-80.05026419 145.69879726 -82.45183924 146.70085693 -86.4375 150.1875 C-88.92712004 151.29494191 -91.30807409 152.24999414 -93.875 153.125 C-94.60364258 153.37733398 -95.33228516 153.62966797 -96.08300781 153.88964844 C-105.67834309 157.08809353 -115.53808341 159.17504752 -125.4375 161.1875 C-126.59765625 161.43628906 -127.7578125 161.68507813 -128.953125 161.94140625 C-139.31810765 163.88144881 -149.9367827 163.37130143 -160.4375 163.1875 C-160.4375 163.8475 -160.4375 164.5075 -160.4375 165.1875 C-161.02535782 165.19558685 -161.61321564 165.20367371 -162.21888733 165.21200562 C-168.46731347 165.29962972 -174.71547773 165.39915097 -180.96362305 165.50488281 C-183.27998373 165.54262262 -185.59639218 165.57755882 -187.9128418 165.609375 C-200.03802749 165.77781691 -212.10929849 166.09242011 -224.1953125 167.12890625 C-225.13113663 167.20865692 -226.06696075 167.28840759 -227.03114319 167.37057495 C-232.83983957 167.91455122 -238.3360411 168.90237954 -243.94921875 170.53515625 C-246.51695983 171.2083317 -248.91848273 171.48848795 -251.5625 171.6875 C-255.03476685 171.95289619 -258.00712478 172.59272604 -261.3125 173.6875 C-266.94417571 175.52586548 -272.54812444 175.89404314 -278.4375 176.1875 C-278.4375 176.8475 -278.4375 177.5075 -278.4375 178.1875 C-281.41625968 178.66931362 -284.39546749 179.14800857 -287.375 179.625 C-288.20580078 179.75970703 -289.03660156 179.89441406 -289.89257812 180.03320312 C-295.39700075 180.91134059 -300.89318182 181.61124897 -306.4375 182.1875 C-306.7675 180.8675 -307.0975 179.5475 -307.4375 178.1875 C-306.72400391 177.80271484 -306.72400391 177.80271484 -305.99609375 177.41015625 C-300.80561593 174.57116562 -295.70308776 171.59652328 -290.625 168.5625 C-289.65614868 167.98640991 -289.65614868 167.98640991 -288.66772461 167.39868164 C-286.0597856 165.83337485 -283.53291128 164.26030121 -281.11328125 162.4140625 C-279.4375 161.1875 -279.4375 161.1875 -277.4375 161.1875 C-277.4375 160.5275 -277.4375 159.8675 -277.4375 159.1875 C-276.1175 158.8575 -274.7975 158.5275 -273.4375 158.1875 C-273.4375 157.5275 -273.4375 156.8675 -273.4375 156.1875 C-268.90127345 151.802481 -262.13083627 147.48104551 -255.734375 146.97265625 C-253.4375 147.1875 -253.4375 147.1875 -251.6875 148.375 C-250.1545154 150.59782768 -249.90332724 152.5521255 -249.4375 155.1875 C-242.56315882 154.28981971 -236.39096744 153.03613491 -230.02734375 150.26171875 C-226.10892671 148.63643265 -222.06036438 147.44711851 -218.00390625 146.21484375 C-215.36806648 145.15970546 -214.34833888 144.20591963 -212.4375 142.1875 C-210.84339785 141.27697047 -209.2144243 140.42585692 -207.5625 139.625 C-206.71945313 139.21121094 -205.87640625 138.79742187 -205.0078125 138.37109375 C-195.3405533 133.91945311 -186.75285796 134.67835888 -176.4375 137.1875 C-175.4475 137.8475 -174.4575 138.5075 -173.4375 139.1875 C-159.51691144 140.59417365 -144.2732835 138.83407228 -132.4375 131.1875 C-131.303125 130.713125 -130.16875 130.23875 -129 129.75 C-125.13188054 128.05345638 -121.66349408 126.0133404 -118.0703125 123.8046875 C-114.60189856 121.67423739 -111.08332361 119.63121424 -107.56640625 117.58203125 C-105.42477358 116.28446562 -105.42477358 116.28446562 -103.86328125 114.6015625 C-102.4375 113.1875 -102.4375 113.1875 -99.0625 111.75 C-95.59936392 110.25726893 -93.27722883 108.62155328 -90.4375 106.1875 C-89.7775 105.8575 -89.1175 105.5275 -88.4375 105.1875 C-87.97226937 103.29216658 -87.97226937 103.29216658 -87.8125 101.125 C-87.626875 99.1759375 -87.626875 99.1759375 -87.4375 97.1875 C-95.29163797 98.05637116 -102.90055986 99.19243885 -110.5625 101.125 C-118.05415359 103.0090656 -125.55794642 104.18014738 -133.21923828 105.14819336 C-136.93138032 105.62836561 -140.3273181 106.15374056 -143.91796875 107.25390625 C-148.52365642 108.47561474 -152.88310911 108.43897125 -157.625 108.5 C-165.37604134 108.70956045 -171.21614756 109.52944213 -178.16015625 113.12890625 C-180.4375 114.1875 -180.4375 114.1875 -184.4375 114.1875 C-184.125 112.25 -184.125 112.25 -183.4375 110.1875 C-182.4475 109.8575 -181.4575 109.5275 -180.4375 109.1875 C-180.4375 108.5275 -180.4375 107.8675 -180.4375 107.1875 C-175.51960537 101.70549392 -169.24201301 98.12218436 -162.87890625 94.5703125 C-160.5630796 93.40200647 -160.5630796 93.40200647 -159.4375 92.1875 C-157.77630384 92.11244313 -156.1119811 92.10432138 -154.44921875 92.125 C-152.92458008 92.13660156 -152.92458008 92.13660156 -151.36914062 92.1484375 C-149.21809725 92.17433808 -147.06705556 92.2003782 -144.91601562 92.2265625 C-143.38557617 92.23816406 -143.38557617 92.23816406 -141.82421875 92.25 C-140.88795654 92.26160156 -139.95169434 92.27320313 -138.98706055 92.28515625 C-136.64022766 92.19526511 -134.67984348 91.85628643 -132.4375 91.1875 C-133.24574219 91.16171875 -134.05398438 91.1359375 -134.88671875 91.109375 C-143.64999027 90.64425564 -143.64999027 90.64425564 -147.5625 88.375 C-149.29721397 86.35116704 -150.30688499 84.57379805 -151.4375 82.1875 C-152.39116455 82.20321045 -153.3448291 82.2189209 -154.32739258 82.23510742 C-157.86636913 82.28941678 -161.40530886 82.32385333 -164.94458008 82.35229492 C-166.47621861 82.36737936 -168.00781398 82.38784978 -169.53930664 82.41381836 C-171.74115654 82.45021847 -173.94243533 82.46722913 -176.14453125 82.48046875 C-176.82900833 82.49595261 -177.51348541 82.51143646 -178.21870422 82.52738953 C-181.02808191 82.52838351 -182.96179456 82.51309313 -185.3190918 80.8996582 C-187.07717989 78.20822144 -187.67834003 75.28253678 -188.4375 72.1875 C-189.11329102 72.21368408 -189.78908203 72.23986816 -190.48535156 72.2668457 C-193.55249712 72.37089264 -196.61927158 72.43584947 -199.6875 72.5 C-200.75097656 72.54189453 -201.81445312 72.58378906 -202.91015625 72.62695312 C-210.79201738 72.75088176 -210.79201738 72.75088176 -214.109375 69.85546875 C-215.4375 67.1875 -215.4375 67.1875 -216.4375 64.1875 C-223.08548848 61.64449369 -231.52271683 63.20948777 -238.42504883 63.89941406 C-258.08444246 65.86086536 -277.67950739 65.69295669 -297.375 64.3125 C-299.08103394 64.19503418 -299.08103394 64.19503418 -300.8215332 64.07519531 C-301.87945068 63.99108398 -302.93736816 63.90697266 -304.02734375 63.8203125 C-304.95409912 63.74699707 -305.88085449 63.67368164 -306.83569336 63.59814453 C-309.60951907 63.16035014 -311.86905242 62.30336352 -314.4375 61.1875 C-315.867072 60.78332781 -317.30452882 60.40549316 -318.75 60.0625 C-319.966875 59.77375 -321.18375 59.485 -322.4375 59.1875 C-322.4375 58.5275 -322.4375 57.8675 -322.4375 57.1875 C-315.41216485 55.59876532 -308.55544009 54.76768396 -301.375 54.3125 C-288.08864191 53.37647096 -274.84454414 52.11341091 -261.59277344 50.78295898 C-259.80665146 50.60389584 -258.02051857 50.42494139 -256.234375 50.24609375 C-255.34264587 50.15670029 -254.45091675 50.06730682 -253.53216553 49.97520447 C-247.34306065 49.36072624 -241.15040653 48.80994409 -234.953125 48.28515625 C-212.41033385 46.34476377 -190.53098845 43.06109144 -168.4375 38.1875 C-167.36704437 37.95199432 -167.36704437 37.95199432 -166.27496338 37.71173096 C-158.97970205 36.1034841 -151.69475228 34.45561591 -144.41796875 32.765625 C-139.73194818 31.68665232 -135.03893731 30.69528293 -130.3203125 29.76953125 C-120.87958886 27.90963349 -111.50668493 25.75984296 -102.125 23.625 C-72.27344919 16.84043243 -72.27344919 16.84043243 -58.4375 16.1875 C-56.87128906 16.10628906 -56.87128906 16.10628906 -55.2734375 16.0234375 C-46.37329238 15.7595518 -46.37329238 15.7595518 -42.4375 19.1875 C-39.58828576 23.46132137 -40.00012741 27.45514992 -40.78515625 32.359375 C-41.82667455 37.29564661 -43.25737816 42.11052765 -44.75390625 46.92578125 C-45.38129929 49.00155593 -45.93097741 51.07940124 -46.4375 53.1875 C-41.45843741 53.94177297 -41.45843741 53.94177297 -36.4375 54.1875 C-36.4375 53.5275 -36.4375 52.8675 -36.4375 52.1875 C-31.4875 50.7025 -31.4875 50.7025 -26.4375 49.1875 C-26.1075 47.5375 -25.7775 45.8875 -25.4375 44.1875 C-24.90125 43.3625 -24.365 42.5375 -23.8125 41.6875 C-22.08563032 38.54773694 -22.47952356 37.57301882 -23.4375 34.1875 C-24.24980736 32.60283483 -25.10638398 31.04027833 -26 29.5 C-28.73097297 24.28133039 -28.99209392 19.9799254 -28.4375 14.1875 C-27.7775 14.1875 -27.1175 14.1875 -26.4375 14.1875 C-26.20675781 13.45015625 -25.97601563 12.7128125 -25.73828125 11.953125 C-24.18679082 8.65446067 -22.47951267 7.1800257 -19.625 4.9375 C-18.77292969 4.25171875 -17.92085938 3.5659375 -17.04296875 2.859375 C-11.79143963 -0.5104218 -6.05099484 0.00465819 0 0 Z " fill="#FDFCFA" transform="translate(406.4375,164.8125)"/>
<path d="M0 0 C10.95203237 10.22992034 21.10976678 20.71656091 29.95507812 32.82617188 C30.81313964 33.97722204 31.67121264 35.12826365 32.52929688 36.27929688 C57.33836382 69.93288359 72.99783883 110.14667745 76.95507812 151.82617188 C77.06464844 152.82003906 77.17421875 153.81390625 77.28710938 154.83789062 C79.33452974 176.1583614 78.66398446 198.88656711 73.95507812 219.82617188 C73.62507813 219.82617188 73.29507812 219.82617188 72.95507812 219.82617188 C72.92757944 217.9929264 72.90846139 216.15955478 72.89257812 214.32617188 C72.88097656 213.30523437 72.869375 212.28429687 72.85742188 211.23242188 C72.95507812 207.82617188 72.95507812 207.82617188 73.45507812 204.42773438 C74.20779512 198.56553237 74.07846386 192.6954828 74.05273438 186.79492188 C74.05131943 185.56326294 74.04990448 184.331604 74.04844666 183.06262207 C74.04287424 179.15044672 74.03032679 175.23832977 74.01757812 171.32617188 C74.01199295 168.66471438 74.00799728 166.00325743 74.00390625 163.34179688 C73.99291384 156.8365688 73.97620327 150.33137451 73.95507812 143.82617188 C73.29507812 143.82617188 72.63507813 143.82617188 71.95507812 143.82617188 C69.65895056 130.19291447 69.65895056 130.19291447 69.95507812 123.82617188 C69.29507812 123.82617188 68.63507813 123.82617188 67.95507812 123.82617188 C67.85195313 122.83617187 67.74882812 121.84617188 67.64257812 120.82617188 C67.24967732 117.9545292 66.51298903 115.5575752 65.39257812 112.88867188 C63.71170049 108.7191162 63.71587168 105.29135887 63.95507812 100.82617188 C63.29507812 100.82617188 62.63507813 100.82617188 61.95507812 100.82617188 C61.95507812 99.17617187 61.95507812 97.52617187 61.95507812 95.82617188 C61.29507812 95.82617188 60.63507813 95.82617188 59.95507812 95.82617188 C59.71273438 95.13652344 59.47039062 94.446875 59.22070312 93.73632812 C56.23933223 85.3770228 52.8768019 77.37985555 48.68945312 69.55273438 C47.95507812 67.82617187 47.95507812 67.82617187 47.95507812 64.82617188 C47.29507812 64.82617188 46.63507813 64.82617188 45.95507812 64.82617188 C45.54257812 63.79492188 45.13007813 62.76367188 44.70507812 61.70117188 C42.84620531 57.36087922 40.34333648 53.61933892 37.45507812 49.88867188 C35.95507813 47.82617188 35.95507813 47.82617188 34.17382812 44.61914062 C32.04610438 40.86888166 29.59640118 37.47787581 26.95507812 34.07617188 C26.5296875 33.51285156 26.10429687 32.94953125 25.66601562 32.36914062 C23.32822753 29.335753 20.99987832 27.10315289 17.95507812 24.82617188 C16.97070312 23.02929688 16.97070312 23.02929688 16.20507812 21.07617188 C13.87336126 16.05330353 10.17775867 13.25815128 5.95507812 9.82617188 C3.55448995 7.53227651 1.37622207 5.44873248 -0.48242188 2.70117188 C-2.00913448 0.61442978 -2.00913448 0.61442978 -4.79492188 -0.54882812 C-8.72104735 -2.51189086 -12.02925789 -4.9708004 -15.04492188 -8.17382812 C-15.04492188 -8.83382812 -15.04492188 -9.49382812 -15.04492188 -10.17382812 C-15.82867187 -10.48320313 -16.61242187 -10.79257813 -17.41992188 -11.11132812 C-20.04492188 -12.17382813 -20.04492188 -12.17382813 -22.04492188 -13.17382812 C-22.04492188 -13.83382812 -22.04492188 -14.49382812 -22.04492188 -15.17382812 C-23.36492187 -15.17382812 -24.68492187 -15.17382812 -26.04492188 -15.17382812 C-26.04492188 -15.83382812 -26.04492188 -16.49382813 -26.04492188 -17.17382812 C-26.73328125 -17.40972656 -27.42164063 -17.645625 -28.13085938 -17.88867188 C-31.62718128 -19.43061545 -34.58898903 -21.51003761 -37.66992188 -23.73632812 C-42.07929937 -26.95267537 -42.07929937 -26.95267537 -47.04492188 -29.17382812 C-47.37492187 -29.83382812 -47.70492188 -30.49382813 -48.04492188 -31.17382812 C-50.70040323 -32.2556909 -53.3399586 -33.23093083 -56.04492188 -34.17382812 C-58.04560749 -34.90111148 -60.04559814 -35.63030924 -62.04492188 -36.36132812 C-63.7114434 -36.96589504 -65.37805895 -37.57020313 -67.04492188 -38.17382812 C-67.04492188 -38.83382812 -67.04492188 -39.49382813 -67.04492188 -40.17382812 C-68.09679687 -40.29757813 -69.14867187 -40.42132813 -70.23242188 -40.54882812 C-73.50450959 -41.08523595 -76.05028264 -41.81262847 -79.04492188 -43.17382812 C-79.04492188 -43.83382812 -79.04492188 -44.49382813 -79.04492188 -45.17382812 C-80.26179688 -45.42132813 -81.47867187 -45.66882812 -82.73242188 -45.92382812 C-86.56161772 -46.76815392 -90.251065 -47.84608111 -93.98242188 -49.04882812 C-125.28084141 -58.82502444 -178.62585905 -67.62882169 -209.08007812 -52.13867188 C-211.75320782 -50.82602171 -214.2843805 -50.6061541 -217.23242188 -50.23632812 C-222.10898675 -49.547486 -226.48421146 -48.5239585 -231.09960938 -46.83789062 C-233.70466843 -45.94861344 -236.32044145 -45.52312049 -239.04492188 -45.17382812 C-239.04492188 -44.51382813 -239.04492188 -43.85382812 -239.04492188 -43.17382812 C-240.46093901 -42.69274538 -241.87776624 -42.21404672 -243.29492188 -41.73632812 C-244.08382812 -41.46949219 -244.87273437 -41.20265625 -245.68554688 -40.92773438 C-247.79314175 -40.25428104 -249.8924616 -39.68232218 -252.04492188 -39.17382812 C-252.04492188 -38.51382813 -252.04492188 -37.85382812 -252.04492188 -37.17382812 C-253.11742187 -36.96757813 -254.18992188 -36.76132812 -255.29492188 -36.54882812 C-260.4210544 -35.29944816 -264.86470731 -32.87171381 -269.50585938 -30.41601562 C-272.04492188 -29.17382812 -272.04492188 -29.17382812 -274.04492188 -29.17382812 C-274.04492188 -28.51382813 -274.04492188 -27.85382812 -274.04492188 -27.17382812 C-275.21861328 -26.55894531 -275.21861328 -26.55894531 -276.41601562 -25.93164062 C-277.42792969 -25.3928125 -278.43984375 -24.85398438 -279.48242188 -24.29882812 C-280.49175781 -23.76515625 -281.50109375 -23.23148438 -282.54101562 -22.68164062 C-285.14632629 -21.41728698 -285.14632629 -21.41728698 -286.04492188 -19.17382812 C-287.72462513 -18.47971854 -289.40486889 -17.78687569 -291.08837891 -17.10205078 C-294.42954034 -15.51693776 -297.1423217 -13.20172601 -299.98242188 -10.86132812 C-301.2083924 -9.87231262 -302.43495114 -8.8840258 -303.66210938 -7.89648438 C-304.24444336 -7.42484863 -304.82677734 -6.95321289 -305.42675781 -6.46728516 C-307.44587608 -4.85333093 -309.51796479 -3.32023889 -311.60742188 -1.79882812 C-315.6235452 1.18971567 -319.00396567 4.45991686 -322.04492188 8.45117188 C-324.04492188 10.82617188 -324.04492188 10.82617188 -326.41992188 12.13867188 C-330.99890202 15.08230197 -334.32859505 19.67719141 -336.04492188 24.82617188 C-336.68429687 24.94992188 -337.32367188 25.07367188 -337.98242188 25.20117188 C-339.00335938 25.51054687 -339.00335938 25.51054687 -340.04492188 25.82617188 C-340.74704081 27.47821643 -341.41463601 29.14540956 -342.04492188 30.82617188 C-343.03492188 31.15617187 -344.02492188 31.48617187 -345.04492188 31.82617188 C-346.09397086 33.61504471 -346.09397086 33.61504471 -347.04492188 35.82617188 C-350.05466404 40.77670496 -353.1425769 45.68012975 -356.60742188 50.32617188 C-360.95863787 56.29108387 -364.39463998 62.94885809 -367.04492188 69.82617188 C-368.0313486 72.16554169 -369.0392922 74.49493944 -370.04492188 76.82617188 C-370.70492187 76.82617188 -371.36492187 76.82617188 -372.04492188 76.82617188 C-371.98304688 77.73367187 -371.92117188 78.64117187 -371.85742188 79.57617188 C-372.07183405 83.29264949 -372.81548911 83.99650721 -375.04492188 86.82617188 C-375.76419483 89.14382916 -376.43591118 91.47713061 -377.04492188 93.82617188 C-377.37492187 94.48617187 -377.70492187 95.14617187 -378.04492188 95.82617188 C-378.70492187 95.82617188 -379.36492187 95.82617188 -380.04492188 95.82617188 C-380.14804687 96.71304688 -380.25117188 97.59992188 -380.35742188 98.51367188 C-382.61733774 114.39858774 -382.61733774 114.39858774 -385.04492188 116.82617188 C-385.27685052 118.34086636 -385.45707426 119.86371749 -385.60742188 121.38867188 C-385.69121094 122.21496094 -385.775 123.04125 -385.86132812 123.89257812 C-385.92191406 124.53066406 -385.9825 125.16875 -386.04492188 125.82617188 C-386.70492188 125.82617188 -387.36492187 125.82617188 -388.04492188 125.82617188 C-388.70492188 131.76617187 -389.36492187 137.70617187 -390.04492188 143.82617188 C-390.70492188 143.82617188 -391.36492187 143.82617188 -392.04492188 143.82617188 C-392.0961478 151.50843416 -392.13087332 159.19065148 -392.15478516 166.87304688 C-392.16476668 169.47983445 -392.17835663 172.08661106 -392.19580078 174.69335938 C-392.37560206 195.34707307 -392.37560206 195.34707307 -390.04492188 215.82617188 C-389.82570068 217.11539551 -389.82570068 217.11539551 -389.60205078 218.43066406 C-389.21459233 220.53556729 -388.77504369 222.61567487 -388.29492188 224.70117188 C-388.1315332 225.43094238 -387.96814453 226.16071289 -387.79980469 226.91259766 C-386.27725031 233.41188033 -384.22448187 239.70811604 -381.97558594 245.98974609 C-380.72972361 249.50525853 -380.04492188 252.04927323 -380.04492188 255.82617188 C-379.38492188 255.82617188 -378.72492188 255.82617188 -378.04492188 255.82617188 C-377.59052734 257.29376953 -377.59052734 257.29376953 -377.12695312 258.79101562 C-374.9764392 265.57600397 -372.78662024 271.88722996 -369.11523438 278.02929688 C-367.13710003 281.35025234 -366.04492188 283.96453202 -366.04492188 287.82617188 C-365.38492188 287.82617188 -364.72492188 287.82617188 -364.04492188 287.82617188 C-364.04492188 288.48617188 -364.04492188 289.14617187 -364.04492188 289.82617188 C-363.38492188 289.82617188 -362.72492188 289.82617188 -362.04492188 289.82617188 C-361.46484375 291.03853516 -361.46484375 291.03853516 -360.87304688 292.27539062 C-360.35226562 293.34402344 -359.83148438 294.41265625 -359.29492188 295.51367188 C-358.78445313 296.56941406 -358.27398437 297.62515625 -357.74804688 298.71289062 C-356.09200664 301.74010179 -354.22782982 304.16628995 -352.04492188 306.82617188 C-351.34484009 308.00373047 -351.34484009 308.00373047 -350.63061523 309.20507812 C-349.12373433 311.69589773 -347.50370497 313.90851238 -345.68945312 316.18164062 C-345.06748047 316.96861328 -344.44550781 317.75558594 -343.8046875 318.56640625 C-342.49625721 320.2108026 -341.18633756 321.85401489 -339.875 323.49609375 C-339.25689453 324.27919922 -338.63878906 325.06230469 -338.00195312 325.86914062 C-337.15080933 326.93684692 -337.15080933 326.93684692 -336.2824707 328.02612305 C-335.04492188 329.82617188 -335.04492188 329.82617188 -335.04492188 331.82617188 C-334.46742188 331.88804687 -333.88992188 331.94992187 -333.29492188 332.01367188 C-330.12043704 333.16001362 -328.91643612 335.0857403 -327.04492188 337.82617188 C-327.04492188 338.48617188 -327.04492188 339.14617187 -327.04492188 339.82617188 C-326.14773438 339.91898437 -326.14773438 339.91898437 -325.23242188 340.01367188 C-322.15700844 341.15596829 -321.59014916 343.00445249 -320.04492188 345.82617188 C-319.48804688 346.38304687 -318.93117188 346.93992187 -318.35742188 347.51367188 C-317.92429687 347.94679688 -317.49117188 348.37992187 -317.04492188 348.82617188 C-317.04492188 349.48617188 -317.04492188 350.14617187 -317.04492188 350.82617188 C-316.37589844 351.02984375 -315.706875 351.23351562 -315.01757812 351.44335938 C-310.95168813 353.3347195 -307.88661514 356.06494615 -304.48242188 358.95117188 C-297.91197616 364.40072843 -291.27959036 369.28032403 -284.04492188 373.82617188 C-282.47484375 374.85871094 -282.47484375 374.85871094 -280.87304688 375.91210938 C-272.60441208 381.23331215 -264.23449883 385.02799946 -254.79101562 387.77148438 C-252.04492188 388.82617188 -252.04492188 388.82617188 -250.04492188 391.82617188 C-246.4774411 393.60991226 -242.97738173 394.27745655 -239.04492188 394.82617188 C-239.04492188 395.48617188 -239.04492188 396.14617187 -239.04492188 396.82617188 C-237.06492188 396.82617188 -235.08492187 396.82617188 -233.04492188 396.82617188 C-233.04492188 397.48617188 -233.04492188 398.14617187 -233.04492188 398.82617188 C-231.89636719 399.08011719 -230.7478125 399.3340625 -229.56445312 399.59570312 C-228.81945557 399.76086426 -228.07445801 399.92602539 -227.30688477 400.09619141 C-225.65660302 400.46167791 -224.00604311 400.82591041 -222.35522461 401.18896484 C-217.75181825 402.20578331 -213.17850238 403.29655957 -208.60742188 404.45117188 C-193.29966341 407.92495804 -177.66156757 408.15079568 -162.03759766 408.08691406 C-158.91614479 408.07615886 -155.79526412 408.08689875 -152.67382812 408.09960938 C-141.04793213 408.10741708 -129.52080549 407.85520296 -118.04492188 405.82617188 C-117.71492188 405.49617188 -117.38492187 405.16617187 -117.04492188 404.82617188 C-115.5256415 404.75437224 -114.00324706 404.7422518 -112.48242188 404.76367188 C-111.65613281 404.77269531 -110.82984375 404.78171875 -109.97851562 404.79101562 C-109.34042969 404.80261719 -108.70234375 404.81421875 -108.04492188 404.82617188 C-108.04492188 404.16617187 -108.04492188 403.50617188 -108.04492188 402.82617188 C-107.2225 402.71660156 -106.40007812 402.60703125 -105.55273438 402.49414062 C-99.24053934 401.59760484 -93.27949599 400.4497578 -87.21289062 398.49023438 C-84.52240213 397.66612078 -81.83204217 397.19289823 -79.04492188 396.82617188 C-79.04492188 396.16617187 -79.04492188 395.50617188 -79.04492188 394.82617188 C-77.97242188 394.61992187 -76.89992188 394.41367187 -75.79492188 394.20117188 C-68.41211436 392.365305 -61.68387214 388.41810263 -55.16992188 384.57617188 C-52.04492187 382.82617188 -52.04492187 382.82617188 -49.23242188 381.95117188 C-44.43002669 380.25620887 -40.33101438 377.54668568 -36.04492188 374.82617188 C-34.75328125 374.00632812 -34.75328125 374.00632812 -33.43554688 373.16992188 C-29.0733574 370.63117615 -29.0733574 370.63117615 -26.04492188 366.82617188 C-24.06326154 365.79030397 -22.06018356 364.79504769 -20.04492188 363.82617188 C-19.13742187 363.26929688 -18.22992188 362.71242188 -17.29492188 362.13867188 C-15.04492188 360.82617188 -15.04492188 360.82617188 -13.04492188 360.82617188 C-13.04492188 359.83617187 -13.04492188 358.84617187 -13.04492188 357.82617188 C-10.36838686 354.77789589 -7.89506245 352.23789009 -4.04492188 350.82617188 C-3.05492187 350.82617188 -2.06492187 350.82617188 -1.04492188 350.82617188 C0.1613582 348.4940304 1.12055192 346.32975049 1.95507812 343.82617188 C2.94507813 343.82617188 3.93507813 343.82617188 4.95507812 343.82617188 C4.95507812 342.50617188 4.95507812 341.18617188 4.95507812 339.82617188 C5.55320312 339.55804688 6.15132813 339.28992188 6.76757812 339.01367188 C8.98504942 337.95320459 8.98504942 337.95320459 10.45507812 336.26367188 C12.22967998 334.56301176 13.56514069 334.23823005 15.95507812 333.82617188 C16.09945313 333.22804688 16.24382812 332.62992187 16.39257812 332.01367188 C17.67985198 327.00760686 19.37807607 325.48472879 23.36132812 322.42382812 C25.22472929 320.5558598 25.35903842 319.34055784 25.95507812 316.82617188 C27.40914063 315.61960937 27.40914063 315.61960937 28.89257812 314.38867188 C31.91477229 311.85989716 32.89716221 310.52887758 33.95507812 306.82617188 C34.61507813 306.82617188 35.27507812 306.82617188 35.95507812 306.82617188 C35.95507812 305.50617188 35.95507812 304.18617188 35.95507812 302.82617188 C37.26395271 301.46882045 38.60360675 300.141117 39.95507812 298.82617188 C42.67303745 295.00206631 45.01211042 291.46847442 45.95507812 286.82617188 C46.61507813 286.82617188 47.27507812 286.82617188 47.95507812 286.82617188 C48.12523437 286.26929688 48.29539062 285.71242188 48.47070312 285.13867188 C50.42871073 278.97303092 53.01144541 273.44653 56.06445312 267.75976562 C58.15911369 263.76017825 59.49824128 260.39454036 59.95507812 255.82617188 C60.61507813 255.82617188 61.27507812 255.82617188 61.95507812 255.82617188 C62.05820312 254.85679687 62.16132813 253.88742187 62.26757812 252.88867188 C62.67477814 250.01533089 63.3645657 247.43594791 64.33007812 244.70117188 C66.03705221 239.83837742 67.14030961 234.89490893 68.25976562 229.86914062 C69.03540661 226.47462191 69.94777961 223.15800544 70.95507812 219.82617188 C71.28507812 219.82617188 71.61507813 219.82617188 71.95507812 219.82617188 C72.40685772 227.57905153 71.18154926 234.21193228 69.01757812 241.63867188 C68.70618896 242.725271 68.3947998 243.81187012 68.07397461 244.93139648 C64.89648753 255.63463409 60.69958945 265.73510749 55.95507812 275.82617188 C55.62926758 276.53531738 55.30345703 277.24446289 54.96777344 277.97509766 C44.30376317 301.08782042 29.36040907 321.89938117 11.64257812 340.09179688 C10.04705089 341.73164431 8.46882887 343.38657474 6.89257812 345.04492188 C-0.19037685 352.40903947 -7.84926051 358.73963841 -16.04492188 364.82617188 C-16.90754639 365.47199219 -16.90754639 365.47199219 -17.78759766 366.13085938 C-52.38646319 391.91155512 -92.29318265 406.84421141 -135.04492188 411.82617188 C-136.17800781 411.95894531 -137.31109375 412.09171875 -138.47851562 412.22851562 C-200.03551172 418.07202761 -262.50819709 397.99367113 -310.04492188 358.82617188 C-314.59393506 354.8878794 -318.95408667 350.75889968 -323.26318359 346.56103516 C-324.99355315 344.87618916 -326.73896396 343.20820248 -328.48632812 341.54101562 C-336.10650104 334.18698641 -342.75748188 326.34113173 -349.04492188 317.82617188 C-349.66753906 316.98699219 -350.29015625 316.1478125 -350.93164062 315.28320312 C-387.26569194 264.72043241 -403.42110826 201.5373969 -393.55615234 139.765625 C-389.6618322 117.36719388 -383.63883725 96.4424393 -374.04492188 75.82617188 C-373.53807861 74.72982422 -373.53807861 74.72982422 -373.02099609 73.61132812 C-365.28720099 57.05707612 -355.34743953 42.14671828 -344.04492188 27.82617188 C-343.60599609 27.26865234 -343.16707031 26.71113281 -342.71484375 26.13671875 C-331.7692208 12.38366885 -319.13338288 -0.63793294 -305.04492188 -11.17382812 C-304.0059375 -11.95628906 -302.96695313 -12.73875 -301.89648438 -13.54492188 C-266.5684311 -39.67526028 -226.57172821 -54.97122728 -183.04492188 -60.17382812 C-182.00851563 -60.30660156 -180.97210938 -60.439375 -179.90429688 -60.57617188 C-115.34135131 -67.46666168 -47.59380996 -43.72278058 0 0 Z " fill="#DC7517" transform="translate(415.044921875,80.173828125)"/>
<path d="M0 0 C-4.81535511 2.67682002 -9.86134326 3.1301026 -15.25 3.9375 C-16.97561157 4.19853516 -16.97561157 4.19853516 -18.73608398 4.46484375 C-30.87660048 6.23156373 -43.06472853 7.3348559 -55.28283691 8.39904785 C-60.9386022 8.89554755 -66.58870353 9.44162492 -72.23828125 10.00390625 C-73.11176208 10.09080215 -73.98524292 10.17769806 -74.88519287 10.26722717 C-76.66067051 10.44399456 -78.4361425 10.62081866 -80.21160889 10.79769897 C-94.7234418 12.2405018 -109.23006023 13.56709804 -123.77734375 14.60546875 C-128.86222541 14.97212595 -133.93042025 15.4639334 -139 16 C-139 15.34 -139 14.68 -139 14 C-130.93265904 11.84560027 -122.79529844 11.25042761 -114.50170898 10.62231445 C-112.09888804 10.44025706 -109.69691014 10.24934251 -107.29492188 10.05664062 C-98.55088944 9.36586509 -89.80784448 8.77811322 -81.04566956 8.370224 C-76.64475317 8.15098123 -72.35622566 7.64772642 -68 7 C-65.68829193 6.93599922 -63.37497096 6.91366009 -61.0625 6.9375 C-59.34740234 6.95103516 -59.34740234 6.95103516 -57.59765625 6.96484375 C-56.74042969 6.97644531 -55.88320312 6.98804688 -55 7 C-55 6.34 -55 5.68 -55 5 C-54.18845459 4.9498877 -53.37690918 4.89977539 -52.54077148 4.84814453 C-48.83913019 4.61505767 -45.1383619 4.37013865 -41.4375 4.125 C-40.16068359 4.04636719 -38.88386719 3.96773437 -37.56835938 3.88671875 C-31.38840363 3.46937109 -25.89169121 2.85659393 -20 1 C-17.46490122 0.72296859 -14.92134361 0.51502297 -12.375 0.375 C-11.10398437 0.30023438 -9.83296875 0.22546875 -8.5234375 0.1484375 C-5.67509749 0.02844091 -2.8498887 -0.03275734 0 0 Z " fill="#F08927" transform="translate(223,206)"/>
<path d="M0 0 C4.95 0 9.9 0 15 0 C15 0.33 15 0.66 15 1 C3.36302275 3.45913482 -8.16581885 3.20714199 -20 3 C-20 3.66 -20 4.32 -20 5 C-36.83 5 -53.66 5 -71 5 C-71 4.34 -71 3.68 -71 3 C-55.02913958 2.11384004 -39.11815668 1.87441297 -23.125 1.9375 C-20.86458434 1.94253397 -18.60416758 1.94709347 -16.34375 1.95117188 C-10.89580846 1.96200668 -5.44790973 1.978589 0 2 C0 1.34 0 0.68 0 0 Z " fill="#F7D3AB" transform="translate(266,325)"/>
<path d="M0 0 C0.7513623 -0.00522675 1.50272461 -0.01045349 2.27685547 -0.01583862 C18.59548409 -0.06772787 36.04772444 1.18257481 51.625 6.375 C51.625 7.035 51.625 7.695 51.625 8.375 C45.81075226 7.96967984 40.20806379 7.11724596 34.5 5.9375 C13.76182612 1.87148415 -7.33968728 2.09366351 -28.375 2.375 C-28.375 2.045 -28.375 1.715 -28.375 1.375 C-18.92459638 0.42703242 -9.49301081 0.05830094 0 0 Z " fill="#D1741D" transform="translate(262.375,19.625)"/>
<path d="M0 0 C-4.39676802 4.39676802 -19.03442024 4.41806143 -25.0234375 4.7890625 C-27.00010856 4.79074912 -27.00010856 4.79074912 -28 6 C-30.33297433 6.04092937 -32.66705225 6.04241723 -35 6 C-35 6.66 -35 7.32 -35 8 C-44.57 8.33 -54.14 8.66 -64 9 C-60.36464128 6.57642752 -57.83692601 5.88497111 -53.5703125 5.7890625 C-52.69947021 5.76279785 -51.82862793 5.7365332 -50.93139648 5.70947266 C-50.00528564 5.68159668 -49.0791748 5.6537207 -48.125 5.625 C-40.97539149 5.34841239 -34.40542921 4.67963382 -27.46875 2.8359375 C-22.8264411 1.71718288 -18.15551991 0.97312947 -13.4375 0.25 C-12.56730225 0.11029785 -11.69710449 -0.0294043 -10.80053711 -0.17333984 C-9.56702515 -0.35823975 -9.56702515 -0.35823975 -8.30859375 -0.546875 C-7.20729126 -0.71461426 -7.20729126 -0.71461426 -6.08374023 -0.88574219 C-3.84565342 -1.00846329 -2.13382726 -0.65137568 0 0 Z " fill="#EF8F36" transform="translate(296,267)"/>
<path d="M0 0 C-3.06584419 1.71816137 -5.77068409 2.45380728 -9.234375 3 C-10.79152222 3.2460498 -10.79152222 3.2460498 -12.38012695 3.49707031 C-14.04821411 3.74602051 -14.04821411 3.74602051 -15.75 4 C-17.4673938 4.26055176 -17.4673938 4.26055176 -19.21948242 4.52636719 C-32.32770519 6.44407328 -45.72950295 8.11199975 -59 8 C-57.68 7.67 -56.36 7.34 -55 7 C-55 6.34 -55 5.68 -55 5 C-54.18845459 4.9498877 -53.37690918 4.89977539 -52.54077148 4.84814453 C-48.83913019 4.61505767 -45.1383619 4.37013865 -41.4375 4.125 C-39.52227539 4.00705078 -39.52227539 4.00705078 -37.56835938 3.88671875 C-31.38840363 3.46937109 -25.89169121 2.85659393 -20 1 C-17.46490122 0.72296859 -14.92134361 0.51502297 -12.375 0.375 C-11.10398438 0.30023438 -9.83296875 0.22546875 -8.5234375 0.1484375 C-5.67509749 0.02844091 -2.8498887 -0.03275734 0 0 Z " fill="#EF923D" transform="translate(223,206)"/>
<path d="M0 0 C0.33 0 0.66 0 1 0 C1.33 17.16 1.66 34.32 2 52 C1.67 52 1.34 52 1 52 C-2.4708856 42.43390066 -2.08740503 32.31292022 -2.125 22.25 C-2.12967285 21.35587402 -2.1343457 20.46174805 -2.13916016 19.54052734 C-2.13706543 18.70730957 -2.1349707 17.8740918 -2.1328125 17.015625 C-2.13168457 16.26571289 -2.13055664 15.51580078 -2.12939453 14.74316406 C-2 13 -2 13 -1 12 C-0.76572222 9.98405418 -0.58663876 7.961526 -0.4375 5.9375 C-0.35371094 4.83277344 -0.26992188 3.72804687 -0.18359375 2.58984375 C-0.12300781 1.73519531 -0.06242187 0.88054687 0 0 Z " fill="#DA781D" transform="translate(21,234)"/>
<path d="M0 0 C0.91007812 0.00902344 1.82015625 0.01804687 2.7578125 0.02734375 C3.80582031 0.04474609 3.80582031 0.04474609 4.875 0.0625 C4.875 0.7225 4.875 1.3825 4.875 2.0625 C4.05261841 2.22069214 4.05261841 2.22069214 3.21362305 2.38208008 C0.66238976 2.87540952 -1.88768844 3.37437369 -4.4375 3.875 C-5.82038208 4.14521973 -5.82038208 4.14521973 -7.23120117 4.42089844 C-11.88656164 5.34860452 -16.40944979 6.36987425 -20.9375 7.8125 C-27.52775034 9.76009794 -34.32526163 9.31026375 -41.125 9.0625 C-41.125 8.7325 -41.125 8.4025 -41.125 8.0625 C-36.45298795 6.85681947 -31.91003708 6.96867574 -27.125 7.0625 C-27.125 6.4025 -27.125 5.7425 -27.125 5.0625 C-26.52961426 4.94656494 -25.93422852 4.83062988 -25.32080078 4.71118164 C-22.62993604 4.18546202 -19.9399682 3.65528705 -17.25 3.125 C-16.31285156 2.94259766 -15.37570313 2.76019531 -14.41015625 2.57226562 C-13.51425781 2.39501953 -12.61835938 2.21777344 -11.6953125 2.03515625 C-10.86789551 1.87281494 -10.04047852 1.71047363 -9.18798828 1.54321289 C-2.43148267 -0.03117285 -2.43148267 -0.03117285 0 0 Z " fill="#F3953E" transform="translate(155.125,335.9375)"/>
<path d="M0 0 C0.91007812 0.00902344 1.82015625 0.01804688 2.7578125 0.02734375 C3.80582031 0.04474609 3.80582031 0.04474609 4.875 0.0625 C1.51821529 1.94723528 -1.77497504 2.81380494 -5.515625 3.68359375 C-7.40595459 4.12541992 -7.40595459 4.12541992 -9.33447266 4.57617188 C-10.68119354 4.88464578 -12.02803826 5.19257949 -13.375 5.5 C-14.05085144 5.65557373 -14.72670288 5.81114746 -15.42303467 5.97143555 C-44.54349991 12.67161223 -44.54349991 12.67161223 -49.125 11.0625 C-43.83678439 9.07473101 -39.0120742 7.84032284 -33.38671875 7.37890625 C-30.159707 6.92745901 -27.26434003 5.79882289 -24.2109375 4.6953125 C-21.4700782 3.86381586 -18.96579524 3.84397729 -16.125 4.0625 C-15.795 3.0725 -15.465 2.0825 -15.125 1.0625 C-13.10677083 1.09505208 -11.08854167 1.12760417 -9.0703125 1.16015625 C-5.88634803 1.00031868 -3.38606492 -0.04341109 0 0 Z " fill="#F09137" transform="translate(305.125,186.9375)"/>
<path d="M0 0 C13.56156834 -1.07469032 13.56156834 -1.07469032 17.0390625 1.5234375 C18.3125 3.4375 18.3125 3.4375 20 7 C22.9615696 8.4807848 25.83506295 8.35314037 29.125 8.5625 C30.40632813 8.64628906 31.68765625 8.73007813 33.0078125 8.81640625 C33.99523437 8.87699219 34.98265625 8.93757812 36 9 C31.96347708 13.03652292 26.374507 12.18320726 21 12.1875 C20.19304687 12.19974609 19.38609375 12.21199219 18.5546875 12.22460938 C17.38292969 12.22750977 17.38292969 12.22750977 16.1875 12.23046875 C15.47980469 12.23457764 14.77210938 12.23868652 14.04296875 12.24291992 C12 12 12 12 8 10 C11.63 10 15.26 10 19 10 C18.1028125 8.2984375 18.1028125 8.2984375 17.1875 6.5625 C16.85105469 5.92441406 16.51460938 5.28632813 16.16796875 4.62890625 C15.00980201 2.67732013 15.00980201 2.67732013 12 2 C9.94106379 1.77674186 7.87766347 1.59294241 5.8125 1.4375 C4.72582031 1.35371094 3.63914063 1.26992187 2.51953125 1.18359375 C1.68808594 1.12300781 0.85664063 1.06242188 0 1 C0 0.67 0 0.34 0 0 Z " fill="#EEAD81" transform="translate(240,246)"/>
<path d="M0 0 C0.82242188 0.00451172 1.64484375 0.00902344 2.4921875 0.01367188 C4.49482396 0.02531511 6.49742227 0.04324444 8.5 0.0625 C8.5 0.7225 8.5 1.3825 8.5 2.0625 C-4.865 2.5575 -4.865 2.5575 -18.5 3.0625 C-18.5 4.0525 -18.5 5.0425 -18.5 6.0625 C-14.045 7.0525 -14.045 7.0525 -9.5 8.0625 C-9.5 8.3925 -9.5 8.7225 -9.5 9.0625 C-15.69240462 8.37445504 -21.51955594 6.78201285 -27.5 5.0625 C-27.5 4.4025 -27.5 3.7425 -27.5 3.0625 C-26.000823 2.74607535 -24.50059887 2.43461151 -23 2.125 C-22.1646875 1.95097656 -21.329375 1.77695313 -20.46875 1.59765625 C-13.57120723 0.35428341 -6.99168948 -0.07401626 0 0 Z " fill="#FDE0BF" transform="translate(111.5,218.9375)"/>
<path d="M0 0 C1.09054687 0.00451172 2.18109375 0.00902344 3.3046875 0.01367188 C5.95318616 0.0252881 8.60156101 0.04161832 11.25 0.0625 C11.25 0.3925 11.25 0.7225 11.25 1.0625 C9.78361084 1.13766846 9.78361084 1.13766846 8.28759766 1.21435547 C4.61563198 1.40454923 0.944246 1.60446549 -2.72705078 1.80712891 C-4.30764075 1.89306202 -5.88837113 1.97645562 -7.46923828 2.05712891 C-19.08313886 2.64877741 -19.08313886 2.64877741 -30.53662109 4.58544922 C-34.44230609 5.42724367 -38.4041936 5.78447306 -42.375 6.1875 C-43.59509766 6.31705078 -43.59509766 6.31705078 -44.83984375 6.44921875 C-46.80946386 6.65776676 -48.77967244 6.86074533 -50.75 7.0625 C-50.75 6.4025 -50.75 5.7425 -50.75 5.0625 C-46.66777895 4.40950799 -42.58404741 3.76646179 -38.5 3.125 C-37.36046875 2.94259766 -36.2209375 2.76019531 -35.046875 2.57226562 C-23.31682576 0.73944543 -11.86920957 -0.09524674 0 0 Z " fill="#D86A10" transform="translate(256.75,18.9375)"/>
<path d="M0 0 C0 0.33 0 0.66 0 1 C-0.85464844 1.13277344 -1.70929688 1.26554688 -2.58984375 1.40234375 C-3.69457031 1.57894531 -4.79929688 1.75554687 -5.9375 1.9375 C-7.03964844 2.11152344 -8.14179688 2.28554687 -9.27734375 2.46484375 C-11.90426929 2.71845136 -11.90426929 2.71845136 -13 4 C-14.32886073 4.14386104 -15.66448587 4.22676288 -17 4.28125 C-17.804375 4.31863281 -18.60875 4.35601562 -19.4375 4.39453125 C-21.14583333 4.46484375 -22.85416667 4.53515625 -24.5625 4.60546875 C-25.366875 4.64285156 -26.17125 4.68023437 -27 4.71875 C-28.11375 4.76418945 -28.11375 4.76418945 -29.25 4.81054688 C-31.02688855 4.81792413 -31.02688855 4.81792413 -32 6 C-33.85369611 6.08737645 -35.71067541 6.10698153 -37.56640625 6.09765625 C-38.69111328 6.09443359 -39.81582031 6.09121094 -40.97460938 6.08789062 C-42.15861328 6.07951172 -43.34261719 6.07113281 -44.5625 6.0625 C-45.75037109 6.05798828 -46.93824219 6.05347656 -48.16210938 6.04882812 C-51.10812226 6.03699675 -54.05403681 6.02051287 -57 6 C-57 5.67 -57 5.34 -57 5 C-55.79988281 4.88406494 -54.59976563 4.76812988 -53.36328125 4.64868164 C-48.88286597 4.21556083 -44.40259437 3.78096886 -39.92236328 3.34594727 C-37.98848252 3.15837537 -36.05456374 2.97119494 -34.12060547 2.78442383 C-31.33030108 2.51488129 -28.5401394 2.2439007 -25.75 1.97265625 C-24.89446533 1.89032242 -24.03893066 1.80798859 -23.1574707 1.72315979 C-19.28059312 1.3450062 -15.41289411 0.93855154 -11.54882812 0.4453125 C-7.62317505 -0.04728458 -3.94681286 -0.0704788 0 0 Z " fill="#FDDAB6" transform="translate(177,213)"/>
<path d="M0 0 C0.70157227 0.05534912 1.40314453 0.11069824 2.12597656 0.16772461 C20.08743335 1.56559957 37.99105252 2.4912493 56 3 C56 3.33 56 3.66 56 4 C49.14985332 4.05084645 42.29975561 4.08579508 35.44946289 4.10986328 C33.12066835 4.11990049 30.79188634 4.13353314 28.46313477 4.15087891 C25.10950621 4.17522727 21.75604479 4.18650615 18.40234375 4.1953125 C16.84881447 4.21079636 16.84881447 4.21079636 15.26390076 4.22659302 C9.76903406 4.2274396 5.1906032 3.83946576 0 2 C0 1.34 0 0.68 0 0 Z " fill="#F49F50" transform="translate(96,227)"/>
<path d="M0 0 C0 0.66 0 1.32 0 2 C-0.70495605 2.0501123 -1.40991211 2.10022461 -2.13623047 2.15185547 C-5.3829948 2.38638832 -8.62896142 2.6306353 -11.875 2.875 C-13.53789062 2.99294922 -13.53789062 2.99294922 -15.234375 3.11328125 C-21.95913967 3.62752796 -28.4260422 4.49572467 -35 6 C-37.6875 6.59375 -37.6875 6.59375 -40.375 7.1875 C-41.16648437 7.36667969 -41.95796875 7.54585937 -42.7734375 7.73046875 C-45.14314125 8.01732762 -46.74375557 7.72632526 -49 7 C-42.51656189 4.36903961 -36.97669157 3.60674181 -30 4 C-30 3.34 -30 2.68 -30 2 C-19.96788765 0.75155935 -10.13270429 -0.35762486 0 0 Z " fill="#F09139" transform="translate(359,179)"/>
<path d="M0 0 C0.33 0 0.66 0 1 0 C1.42354036 52.05368686 1.42354036 52.05368686 -1 73 C-1.99 72.67 -2.98 72.34 -4 72 C-4.125 66.25 -4.125 66.25 -3 64 C-0.68457381 50.23632246 -0.57894366 36.35771703 -0.375 22.4375 C-0.33671084 20.25063736 -0.29765329 18.06378804 -0.2578125 15.87695312 C-0.16303788 10.58475581 -0.07766623 5.29247464 0 0 Z " fill="#F18011" transform="translate(489,232)"/>
<path d="M0 0 C0.33 0 0.66 0 1 0 C2.14819277 5.8685408 1.77313045 11.0885256 1 17 C0.34 17 -0.32 17 -1 17 C-0.979375 18.27875 -0.95875 19.5575 -0.9375 20.875 C-0.875 24.75 -0.875 24.75 -2 27 C-2.27511629 30.11361767 -2.44668648 33.22687938 -2.62109375 36.34765625 C-2.74613281 37.22292969 -2.87117188 38.09820312 -3 39 C-3.99 39.495 -3.99 39.495 -5 40 C-4.05731417 26.48760557 -2.92162582 13.24470371 0 0 Z " fill="#D97213" transform="translate(24,207)"/>
<path d="M0 0 C-7.24724863 3.37963964 -13.95720228 3.50707535 -21.875 3.625 C-24.30997932 3.67583464 -26.74488592 3.73032825 -29.1796875 3.7890625 C-30.78432861 3.81540771 -30.78432861 3.81540771 -32.42138672 3.84228516 C-34.98686758 3.83019382 -34.98686758 3.83019382 -37 5 C-38.70702735 5.06996014 -40.41668003 5.08440154 -42.125 5.0625 C-43.03507813 5.05347656 -43.94515625 5.04445313 -44.8828125 5.03515625 C-45.58148438 5.02355469 -46.28015625 5.01195312 -47 5 C-47 4.67 -47 4.34 -47 4 C-44.36 4 -41.72 4 -39 4 C-39 3.34 -39 2.68 -39 2 C-38.4016333 1.98018066 -37.8032666 1.96036133 -37.18676758 1.93994141 C-21.74187495 1.43888939 -21.74187495 1.43888939 -6.4609375 -0.6953125 C-3.93844804 -1.00762072 -2.41250781 -0.67825861 0 0 Z " fill="#EE8B2D" transform="translate(285,326)"/>
<path d="M0 0 C0.66 0.33 1.32 0.66 2 1 C1.67 2.65 1.34 4.3 1 6 C0.01 6.33 -0.98 6.66 -2 7 C-1.67 9.31 -1.34 11.62 -1 14 C-4.92826365 16.77675038 -7.53124892 17.34512366 -12.3125 17.1875 C-13.38113281 17.16042969 -14.44976562 17.13335937 -15.55078125 17.10546875 C-16.35902344 17.07066406 -17.16726563 17.03585938 -18 17 C-18 16.67 -18 16.34 -18 16 C-13.71 15.34 -9.42 14.68 -5 14 C-4.731875 12.618125 -4.46375 11.23625 -4.1875 9.8125 C-3.36231912 6.04872534 -2.25521713 3.17780596 0 0 Z " fill="#F4963D" transform="translate(426,198)"/>
<path d="M0 0 C1.05703125 0.18304688 2.1140625 0.36609375 3.203125 0.5546875 C5.75 1.125 5.75 1.125 6.75 2.125 C6.79080783 4.12458364 6.79254356 6.12545254 6.75 8.125 C4.75 6.125 4.75 6.125 3.75 3.125 C-1.78482428 0.999041 -8.67553311 1.86110287 -14.4375 2.625 C-21.00116668 3.46619194 -27.6462715 3.20330508 -34.25 3.125 C-34.25 2.795 -34.25 2.465 -34.25 2.125 C-33.5794458 2.06965088 -32.9088916 2.01430176 -32.21801758 1.95727539 C-29.16592263 1.70365989 -26.11421686 1.44562362 -23.0625 1.1875 C-22.00740234 1.10048828 -20.95230469 1.01347656 -19.86523438 0.92382812 C-18.84365234 0.83681641 -17.82207031 0.74980469 -16.76953125 0.66015625 C-15.83214111 0.581604 -14.89475098 0.50305176 -13.92895508 0.42211914 C-11.24095828 0.16682189 -11.24095828 0.16682189 -8.59741211 -0.42749023 C-5.53271617 -1.01174272 -3.0605186 -0.55029029 0 0 Z " fill="#FEF7E4" transform="translate(186.25,225.875)"/>
<path d="M0 0 C0.33 0 0.66 0 1 0 C1.2396943 5.63281599 0.38529821 10.54538831 -1 16 C0.98 16.33 2.96 16.66 5 17 C5 16.34 5 15.68 5 15 C7.97 14.34 10.94 13.68 14 13 C13.67 13.66 13.34 14.32 13 15 C10.67843403 15.40729228 8.3431213 15.74438677 6 16 C6 16.66 6 17.32 6 18 C-0.625 19.25 -0.625 19.25 -4 17 C-3.58411954 10.80481527 -2.39748106 5.73310689 0 0 Z " fill="#F29C4A" transform="translate(364,201)"/>
<path d="M0 0 C6.24932109 0.76253988 12.30889596 2.13900511 18.4375 3.5625 C19.96407227 3.91344727 19.96407227 3.91344727 21.52148438 4.27148438 C24.01492607 4.84509303 26.50772922 5.42132897 29 6 C29 6.33 29 6.66 29 7 C19.70030756 7.69602688 11.79878389 5.65982131 3 3 C3 2.34 3 1.68 3 1 C2.01 0.67 1.02 0.34 0 0 Z " fill="#D2771B" transform="translate(184,480)"/>
<path d="M0 0 C1.15693359 0.00644531 2.31386719 0.01289063 3.50585938 0.01953125 C5.30313477 0.04466797 5.30313477 0.04466797 7.13671875 0.0703125 C8.96299805 0.08384766 8.96299805 0.08384766 10.82617188 0.09765625 C13.82572149 0.12118213 16.82486919 0.15405597 19.82421875 0.1953125 C16.79809691 1.93153362 14.52566627 2.4681232 11.05078125 2.57421875 C10.14328125 2.60837891 9.23578125 2.64253906 8.30078125 2.67773438 C7.35976562 2.70416016 6.41875 2.73058594 5.44921875 2.7578125 C-2.90797172 3.00829318 -2.90797172 3.00829318 -11.17578125 4.1953125 C-11.17578125 3.5353125 -11.17578125 2.8753125 -11.17578125 2.1953125 C-7.29444094 0.38171937 -4.26884608 -0.0420576 0 0 Z " fill="#FEEACE" transform="translate(243.17578125,270.8046875)"/>
<path d="M0 0 C0.77794922 -0.01611328 1.55589844 -0.03222656 2.35742188 -0.04882812 C7.98648006 -0.05352292 12.14820476 1.0756224 17.3125 3.3125 C14.50456445 4.71646777 12.80993787 3.97291889 9.75 3.375 C1.1151171 1.88089735 -4.80650433 1.34166353 -12.7421875 5.4375 C-14.6875 6.3125 -14.6875 6.3125 -17.6875 6.3125 C-17.6875 5.6525 -17.6875 4.9925 -17.6875 4.3125 C-16.2953125 3.879375 -16.2953125 3.879375 -14.875 3.4375 C-5.07726955 -0.02052251 -5.07726955 -0.02052251 0 0 Z " fill="#EF8B29" transform="translate(214.6875,298.6875)"/>
<path d="M0 0 C-1.98 0.66 -3.96 1.32 -6 2 C-6 2.66 -6 3.32 -6 4 C-11.28 6.31 -16.56 8.62 -22 11 C-22 10.01 -22 9.02 -22 8 C-17.43127471 5.29606054 -12.9291583 3.0081756 -8 1 C-7.0925 0.5875 -6.185 0.175 -5.25 -0.25 C-3 -1 -3 -1 0 0 Z " fill="#D27314" transform="translate(362,467)"/>
<path d="M0 0 C-3.8057877 2.30350308 -7.93377393 2.88936495 -12.25 3.625 C-12.97574219 3.7590625 -13.70148438 3.893125 -14.44921875 4.03125 C-19.36695229 4.89031932 -24.00903441 5.12420955 -29 5 C-24.68991729 0.68991729 -18.18175863 0.69431259 -12.375 0.375 C-11.10398438 0.30023438 -9.83296875 0.22546875 -8.5234375 0.1484375 C-5.67509749 0.02844091 -2.8498887 -0.03275734 0 0 Z " fill="#F29C4C" transform="translate(223,206)"/>
<path d="M0 0 C0.87914062 0.00902344 1.75828125 0.01804688 2.6640625 0.02734375 C4.8178271 0.05075423 6.97145014 0.0866199 9.125 0.125 C9.455 0.785 9.785 1.445 10.125 2.125 C8.84625 2.17398438 7.5675 2.22296875 6.25 2.2734375 C4.54164778 2.34852991 2.83331541 2.42407487 1.125 2.5 C0.28582031 2.5309375 -0.55335938 2.561875 -1.41796875 2.59375 C-6.83052978 2.84549702 -11.66145864 3.64058892 -16.875 5.125 C-16.545 4.135 -16.215 3.145 -15.875 2.125 C-10.71518242 -0.36424107 -5.58977641 -0.10943839 0 0 Z " fill="#F2933A" transform="translate(405.875,162.875)"/>
<path d="M0 0 C-1.63135951 1.63135951 -3.7090994 1.59076718 -5.9375 2 C-9.58532599 2.6503519 -9.58532599 2.6503519 -13 4 C-15.71760108 4.07181821 -18.40859388 4.09299506 -21.125 4.0625 C-21.87910156 4.05798828 -22.63320312 4.05347656 -23.41015625 4.04882812 C-25.27347127 4.03703499 -27.13674555 4.01909942 -29 4 C-29 3.34 -29 2.68 -29 2 C-27.081875 1.80083984 -27.081875 1.80083984 -25.125 1.59765625 C-23.41666223 1.4193133 -21.70832915 1.24092549 -20 1.0625 C-19.16082031 0.97548828 -18.32164062 0.88847656 -17.45703125 0.79882812 C-16.62558594 0.71181641 -15.79414063 0.62480469 -14.9375 0.53515625 C-13.69806641 0.40584717 -13.69806641 0.40584717 -12.43359375 0.27392578 C-10.11519485 0.01296635 -7.81008381 -0.30359381 -5.5 -0.62890625 C-2 -1 -2 -1 0 0 Z " fill="#FEE3C4" transform="translate(264,303)"/>
<path d="M0 0 C0.66 0.66 1.32 1.32 2 2 C1.40574219 1.96447021 0.81148437 1.92894043 0.19921875 1.89233398 C-2.53347623 1.73322781 -5.26667095 1.58529683 -8 1.4375 C-8.93457031 1.38142578 -9.86914062 1.32535156 -10.83203125 1.26757812 C-16.38512636 0.97633188 -21.50613447 1.12538697 -27 2 C-26 0 -26 0 -24 -1.125 C-16.30140027 -3.37042492 -7.65400697 -1.93439802 0 0 Z " fill="#FCDEB9" transform="translate(230,302)"/>
<path d="M0 0 C1.37478516 0.01740234 1.37478516 0.01740234 2.77734375 0.03515625 C3.69644531 0.04417969 4.61554688 0.05320313 5.5625 0.0625 C6.27277344 0.07410156 6.98304688 0.08570313 7.71484375 0.09765625 C7.71484375 0.42765625 7.71484375 0.75765625 7.71484375 1.09765625 C3.98756204 1.93957498 0.25774372 2.76967305 -3.47265625 3.59765625 C-4.52775391 3.83613281 -5.58285156 4.07460937 -6.66992188 4.3203125 C-8.20229492 4.65869141 -8.20229492 4.65869141 -9.765625 5.00390625 C-10.70301514 5.21337891 -11.64040527 5.42285156 -12.60620117 5.63867188 C-15.22486824 6.08732713 -17.63454708 6.18173584 -20.28515625 6.09765625 C-20.28515625 5.43765625 -20.28515625 4.77765625 -20.28515625 4.09765625 C-19.06957031 3.89269531 -17.85398438 3.68773437 -16.6015625 3.4765625 C-15.01689111 3.20463664 -13.43225762 2.93248982 -11.84765625 2.66015625 C-11.04521484 2.52544922 -10.24277344 2.39074219 -9.41601562 2.25195312 C-6.10919574 1.67988724 -3.09358378 0.13220443 0 0 Z " fill="#F18D2D" transform="translate(248.28515625,198.90234375)"/>
<path d="M0 0 C1.24546405 2.49092811 0.7767578 3.41080733 0 6 C-0.99 6 -1.98 6 -3 6 C-3.66 8.97 -4.32 11.94 -5 15 C-6.32 15.33 -7.64 15.66 -9 16 C-9.33 17.65 -9.66 19.3 -10 21 C-11.65 21.33 -13.3 21.66 -15 22 C-10.44155844 15.41558442 -10.44155844 15.41558442 -7.875 13 C-5.36468174 10.32232719 -4.38653489 7.37591104 -3 4 C-1.3125 1.5625 -1.3125 1.5625 0 0 Z " fill="#F48C29" transform="translate(389,270)"/>
<path d="M0 0 C0.33 0 0.66 0 1 0 C1.14809693 10.38324014 0.70201821 20.64523146 0 31 C-0.66 31 -1.32 31 -2 31 C-2.02683987 28.02077407 -2.04676037 25.04178705 -2.0625 22.0625 C-2.07087891 21.21236328 -2.07925781 20.36222656 -2.08789062 19.48632812 C-2.09111328 18.67744141 -2.09433594 17.86855469 -2.09765625 17.03515625 C-2.10289307 16.2862915 -2.10812988 15.53742676 -2.11352539 14.76586914 C-2 13 -2 13 -1 12 C-0.76572222 9.98405418 -0.58663876 7.961526 -0.4375 5.9375 C-0.35371094 4.83277344 -0.26992188 3.72804687 -0.18359375 2.58984375 C-0.12300781 1.73519531 -0.06242187 0.88054687 0 0 Z " fill="#D07D23" transform="translate(21,234)"/>
<path d="M0 0 C1.24716797 0.00902344 2.49433594 0.01804688 3.77929688 0.02734375 C6.83223504 0.05073791 9.88476306 0.08351826 12.9375 0.125 C12.9375 0.455 12.9375 0.785 12.9375 1.125 C12.20225098 1.18034912 11.46700195 1.23569824 10.70947266 1.29272461 C7.32705278 1.54806675 3.94477694 1.80527182 0.5625 2.0625 C-0.59378906 2.14951172 -1.75007813 2.23652344 -2.94140625 2.32617188 C-9.65881489 2.8385166 -16.36311566 3.41370498 -23.0625 4.125 C-23.0625 3.465 -23.0625 2.805 -23.0625 2.125 C-15.29777229 -0.00255215 -8.02072327 -0.11086592 0 0 Z " fill="#EF9642" transform="translate(107.0625,217.875)"/>
<path d="M0 0 C4.01371187 7.08302095 4.30687619 16.0212191 4 24 C3.67 24 3.34 24 3 24 C2.67 21.69 2.34 19.38 2 17 C1.34 17 0.68 17 0 17 C-0.19644384 15.10507254 -0.38177288 13.20899097 -0.5625 11.3125 C-0.66691406 10.25675781 -0.77132813 9.20101562 -0.87890625 8.11328125 C-0.99277552 5.18573914 -0.70848415 2.82868856 0 0 Z " fill="#DA7518" transform="translate(487,207)"/>
<path d="M0 0 C0.33 0 0.66 0 1 0 C3.1044013 6.37725089 3.85100675 12.78352738 4.625 19.4375 C4.7590625 20.55060547 4.893125 21.66371094 5.03125 22.81054688 C5.35922918 25.53980223 5.68199653 28.26956742 6 31 C5.34 30.67 4.68 30.34 4 30 C3.40576172 27.99389648 3.40576172 27.99389648 2.9296875 25.37109375 C2.75566406 24.41783203 2.58164062 23.46457031 2.40234375 22.48242188 C2.22832031 21.47759766 2.05429687 20.47277344 1.875 19.4375 C1.60236328 17.97086914 1.60236328 17.97086914 1.32421875 16.47460938 C0.32970889 10.89264235 -0.20217644 5.6676795 0 0 Z " fill="#D9650C" transform="translate(21,281)"/>
<path d="M0 0 C0 0.66 0 1.32 0 2 C-3.1999003 5.01704885 -5.61537866 6.49890042 -10 7 C-10.33 7.99 -10.66 8.98 -11 10 C-12.98248715 10.71706982 -14.98415349 11.38290413 -17 12 C-17.66 12.66 -18.32 13.32 -19 14 C-19.66 13.34 -20.32 12.68 -21 12 C-20.01 11.46375 -19.02 10.9275 -18 10.375 C-14.38956928 8.32445111 -11.15519808 5.93056305 -7.89453125 3.3671875 C-5.35982758 1.53801991 -3.17994853 0 0 0 Z " fill="#FDEACB" transform="translate(309,277)"/>
<path d="M0 0 C1.95766281 -0.08082094 3.91626728 -0.13910778 5.875 -0.1875 C7.51082031 -0.23970703 7.51082031 -0.23970703 9.1796875 -0.29296875 C10.11039062 -0.19628906 11.04109375 -0.09960938 12 0 C14.78637633 4.1795645 13.79562512 6.14668677 13 11 C12.67 11 12.34 11 12 11 C11.67 8.69 11.34 6.38 11 4 C10.28972656 3.87882813 9.57945312 3.75765625 8.84765625 3.6328125 C7.92855469 3.46523437 7.00945312 3.29765625 6.0625 3.125 C4.68771484 2.88136719 4.68771484 2.88136719 3.28515625 2.6328125 C2.53105469 2.42398438 1.77695312 2.21515625 1 2 C0.67 1.34 0.34 0.68 0 0 Z " fill="#F19137" transform="translate(416,165)"/>
<path d="M0 0 C4.30788231 0.59721104 7.43962226 2.13826534 11.1875 4.3125 C12.23292969 4.90675781 13.27835937 5.50101563 14.35546875 6.11328125 C16.96319793 7.97374387 17.93390978 9.03718486 19 12 C18.443125 11.71125 17.88625 11.4225 17.3125 11.125 C14.97193593 9.94039559 14.97193593 9.94039559 12.3125 9 C10 8 10 8 9 6 C6.6859378 5.26924352 4.35171131 4.59861742 2 4 C2 3.34 2 2.68 2 2 C1.34 1.34 0.68 0.68 0 0 Z " fill="#DD7713" transform="translate(358,43)"/>
<path d="M0 0 C3.20162702 0.59862354 3.91936515 0.91264558 6.25 3.4375 C8 6 8 6 8 8 C8.598125 8.04125 9.19625 8.0825 9.8125 8.125 C12 9 12 9 13.75 12.0625 C14.1625 13.031875 14.575 14.00125 15 15 C12 15 12 15 10.60546875 13.75 C10.13753906 13.1725 9.66960937 12.595 9.1875 12 C8.67316406 11.36964844 8.15882812 10.73929687 7.62890625 10.08984375 C5.03581799 6.76297991 2.49249031 3.40286797 0 0 Z " fill="#E17B16" transform="translate(80,412)"/>
<path d="M0 0 C4.95 0 9.9 0 15 0 C15 0.33 15 0.66 15 1 C4.58244479 3.06142435 -5.42308574 3.21367504 -16 3 C-16 2.67 -16 2.34 -16 2 C-10.72 2 -5.44 2 0 2 C0 1.34 0 0.68 0 0 Z " fill="#F8D4B1" transform="translate(266,325)"/>
<path d="M0 0 C-7.57575834 2.63047165 -15.04621572 4.80693236 -23 6 C-19.11193081 2.11193081 -15.32371073 0.59436173 -9.9375 -0.25 C-8.40416016 -0.50523438 -8.40416016 -0.50523438 -6.83984375 -0.765625 C-4.20684079 -0.98292923 -2.47900018 -0.83227824 0 0 Z " fill="#D8781E" transform="translate(199,29)"/>
<path d="M0 0 C0.66 0.33 1.32 0.66 2 1 C1.2884375 1.6496875 1.2884375 1.6496875 0.5625 2.3125 C-1.23686957 4.02309613 -1.23686957 4.02309613 -2 7 C-2.639375 7.12375 -3.27875 7.2475 -3.9375 7.375 C-4.9584375 7.684375 -4.9584375 7.684375 -6 8 C-7.15521502 10.47130918 -7.15521502 10.47130918 -8 13 C-8.99 13.495 -8.99 13.495 -10 14 C-9.67967594 8.71465294 -6.61273386 5.56779936 -3 2 C-2.01 1.34 -1.02 0.68 0 0 Z " fill="#E07D16" transform="translate(81,98)"/>
<path d="M0 0 C0.66 0.33 1.32 0.66 2 1 C1.3503125 1.5878125 1.3503125 1.5878125 0.6875 2.1875 C-1.12512666 3.98638626 -1.12512666 3.98638626 -2.375 6.5 C-4.23372362 9.35957481 -5.99839562 10.45863559 -9 12 C-9.33 11.01 -9.66 10.02 -10 9 C-9.01 9 -8.02 9 -7 9 C-7 7.68 -7 6.36 -7 5 C-6.401875 4.731875 -5.80375 4.46375 -5.1875 4.1875 C-3.02775192 3.01506533 -1.64209744 1.80630718 0 0 Z " fill="#E37B15" transform="translate(427,415)"/>
<path d="M0 0 C0.33 0.99 0.66 1.98 1 3 C-0.32 3.33 -1.64 3.66 -3 4 C-3.12375 5.216875 -3.2475 6.43375 -3.375 7.6875 C-3.78891306 11.06479059 -4.54573451 13.89756695 -6 17 C-6.33 17 -6.66 17 -7 17 C-7 13.7 -7 10.4 -7 7 C-6.34 7 -5.68 7 -5 7 C-4.731875 6.21625 -4.46375 5.4325 -4.1875 4.625 C-3 2 -3 2 0 0 Z " fill="#FDE6C4" transform="translate(385,172)"/>
<path d="M0 0 C0 0.66 0 1.32 0 2 C-4.79171361 5.48488263 -10.18692459 8.69205803 -16 10 C-16.66 9.67 -17.32 9.34 -18 9 C-13.48178138 6.11336032 -13.48178138 6.11336032 -10.875 5.5 C-8.5157221 4.87085923 -7.67274399 3.74244166 -6 2 C-2.52631579 0 -2.52631579 0 0 0 Z " fill="#F39A43" transform="translate(374,292)"/>
<path d="M0 0 C9.71614177 -0.14973506 19.31629705 0.30386731 29 1 C29 1.33 29 1.66 29 2 C25.85463232 2.19594676 22.70869386 2.3803401 19.5625 2.5625 C18.66466797 2.61857422 17.76683594 2.67464844 16.84179688 2.73242188 C15.98779297 2.78076172 15.13378906 2.82910156 14.25390625 2.87890625 C13.46314697 2.9260376 12.6723877 2.97316895 11.85766602 3.02172852 C10 3 10 3 9 2 C7.48530552 1.76807135 5.96245438 1.58784762 4.4375 1.4375 C3.61121094 1.35371094 2.78492188 1.26992188 1.93359375 1.18359375 C1.29550781 1.12300781 0.65742188 1.06242187 0 1 C0 0.67 0 0.34 0 0 Z " fill="#D17C28" transform="translate(235,490)"/>
<path d="M0 0 C3.63 0.33 7.26 0.66 11 1 C7.72134908 2.63932546 5.55518221 3.44691378 2.0625 4.125 C1.22847656 4.29257812 0.39445312 4.46015625 -0.46484375 4.6328125 C-3.01458019 5.00211177 -5.42759067 5.06442528 -8 5 C-6 3 -6 3 -3.4375 2.5 C-2.633125 2.335 -1.82875 2.17 -1 2 C-0.67 1.34 -0.34 0.68 0 0 Z " fill="#FEE6C9" transform="translate(289,320)"/>
<path d="M0 0 C7.92 0 15.84 0 24 0 C24.33 1.65 24.66 3.3 25 5 C24.34 4.34 23.68 3.68 23 3 C20.57753405 2.62904292 20.57753405 2.62904292 17.7734375 2.5859375 C16.2265625 2.52792969 16.2265625 2.52792969 14.6484375 2.46875 C13.02808594 2.42234375 13.02808594 2.42234375 11.375 2.375 C10.28703125 2.33632812 9.1990625 2.29765625 8.078125 2.2578125 C5.38558835 2.16333753 2.69306243 2.07777569 0 2 C0 1.34 0 0.68 0 0 Z " fill="#EC9549" transform="translate(194,236)"/>
<path d="M0 0 C0 0.66 0 1.32 0 2 C-1.98 2 -3.96 2 -6 2 C-6 2.66 -6 3.32 -6 4 C-10.29 4 -14.58 4 -19 4 C-19 3.67 -19 3.34 -19 3 C-16.58424393 2.49521515 -14.16755639 1.99602358 -11.75 1.5 C-11.06808594 1.35691406 -10.38617188 1.21382812 -9.68359375 1.06640625 C-6.35366879 0.38748951 -3.41667449 0 0 0 Z " fill="#FEE4C5" transform="translate(242,203)"/>
<path d="M0 0 C-6.48549783 3.63187878 -12.73157242 4.29667051 -20 4 C-13.42082551 0.53574441 -7.30942518 -0.2610509 0 0 Z " fill="#F29946" transform="translate(180,332)"/>
<path d="M0 0 C-0.6875 1.875 -0.6875 1.875 -2 4 C-3.65204456 4.70211894 -5.31923769 5.36971413 -7 6 C-7.99 7.485 -7.99 7.485 -9 9 C-10.32 8.67 -11.64 8.34 -13 8 C-12.34 8 -11.68 8 -11 8 C-11 7.34 -11 6.68 -11 6 C-4.25 0 -4.25 0 0 0 Z " fill="#FDE5C6" transform="translate(144,315)"/>
<path d="M0 0 C2.43679946 3.65519918 2.11604695 4.98622509 1.4921875 9.125 C0.88185633 11.45007112 -0.03033205 12.62979621 -2 14 C-3.32854177 8.0819503 -2.66464729 5.22270869 0 0 Z " fill="#E47B14" transform="translate(38,162)"/>
<path d="M0 0 C6.50799121 0.99518578 11.4667853 2.39138172 17 6 C12.90739982 7.36420006 10.52987341 5.7664515 6.8125 4.0625 C6.15830078 3.77181641 5.50410156 3.48113281 4.83007812 3.18164062 C3.21618656 2.46304657 1.60756345 1.7326412 0 1 C0 0.67 0 0.34 0 0 Z " fill="#D76F12" transform="translate(158,471)"/>
<path d="M0 0 C2.56364483 -0.10845031 5.12266279 -0.18749744 7.6875 -0.25 C8.40873047 -0.28351563 9.12996094 -0.31703125 9.87304688 -0.3515625 C13.88194518 -0.42478439 15.57169678 -0.28590487 19.01953125 2.015625 C19.67308594 2.67046875 20.32664062 3.3253125 21 4 C20.01 4.99 19.02 5.98 18 7 C17.66355469 6.19175781 17.32710938 5.38351563 16.98046875 4.55078125 C15.15558857 1.62479738 15.15558857 1.62479738 11.42578125 1.29296875 C10.05553137 1.23339267 8.68399597 1.19902518 7.3125 1.1875 C6.61060547 1.16236328 5.90871094 1.13722656 5.18554688 1.11132812 C3.45763219 1.05255552 1.7287557 1.0233903 0 1 C0 0.67 0 0.34 0 0 Z " fill="#FEEED4" transform="translate(240,245)"/>
<path d="M0 0 C1.4540625 0.0309375 1.4540625 0.0309375 2.9375 0.0625 C2.298125 0.371875 1.65875 0.68125 1 1 C-0.99860821 1.8970163 -0.99860821 1.8970163 -2.0625 3.0625 C-3.47577947 3.21870555 -4.8960459 3.31306173 -6.31640625 3.37890625 C-7.17041016 3.42080078 -8.02441406 3.46269531 -8.90429688 3.50585938 C-9.80212891 3.54517578 -10.69996094 3.58449219 -11.625 3.625 C-12.52669922 3.66818359 -13.42839844 3.71136719 -14.35742188 3.75585938 C-16.59228485 3.86228142 -18.82726308 3.96429988 -21.0625 4.0625 C-21.0625 3.7325 -21.0625 3.4025 -21.0625 3.0625 C-19.84691406 2.92972656 -18.63132812 2.79695313 -17.37890625 2.66015625 C-15.79424516 2.48199909 -14.2096111 2.30360125 -12.625 2.125 C-11.42133789 1.99448242 -11.42133789 1.99448242 -10.19335938 1.86132812 C-6.50700825 1.44136407 -3.47761039 0.07097164 0 0 Z " fill="#EC7F16" transform="translate(301.0625,484.9375)"/>
<path d="M0 0 C0.66 0.33 1.32 0.66 2 1 C-1.05142642 4.52087664 -3.60136813 5.63153675 -8 7 C-8.33 7.66 -8.66 8.32 -9 9 C-10.32 8.67 -11.64 8.34 -13 8 C-11.58531689 7.03874097 -10.1681636 6.08111675 -8.75 5.125 C-7.96109375 4.59132813 -7.1721875 4.05765625 -6.359375 3.5078125 C-4.26684277 2.17053197 -2.30109848 0.93420665 0 0 Z " fill="#FCE1BB" transform="translate(118,332)"/>
<path d="M0 0 C-3.33333333 1.33333333 -6.66666667 2.66666667 -10 4 C-10.87269531 4.39445312 -11.74539062 4.78890625 -12.64453125 5.1953125 C-15 6 -15 6 -18 5 C-13.23495815 1.95848393 -5.65360479 -2.8268024 0 0 Z " fill="#F29B48" transform="translate(192,310)"/>
<path d="M0 0 C0.66 0 1.32 0 2 0 C2.33 1.65 2.66 3.3 3 5 C3.99 5.33 4.98 5.66 6 6 C7.1577506 9.47325181 7.06866652 12.36067448 7 16 C6.34 16 5.68 16 5 16 C5.1546875 14.7625 5.1546875 14.7625 5.3125 13.5 C4.93550734 9.27768222 3.47522516 7.14782273 1.09375 3.734375 C0 2 0 2 0 0 Z " fill="#FEE9CC" transform="translate(379,190)"/>
<path d="M0 0 C3.66786393 1.50349377 5.68910393 3.63728792 8.25 6.625 C8.95640625 7.44226563 9.6628125 8.25953125 10.390625 9.1015625 C10.92171875 9.72804688 11.4528125 10.35453125 12 11 C11.67 11.66 11.34 12.32 11 13 C5.98756041 9.15619099 2.8313413 5.6626826 0 0 Z " fill="#DA6B0B" transform="translate(428,95)"/>
<path d="M0 0 C5.41798672 0.69165788 10.6822785 1.75799248 16 3 C16 3.33 16 3.66 16 4 C14.39592672 4.02708567 12.7917215 4.04643483 11.1875 4.0625 C9.84751953 4.07990234 9.84751953 4.07990234 8.48046875 4.09765625 C6 4 6 4 3 3 C3 2.34 3 1.68 3 1 C2.01 0.67 1.02 0.34 0 0 Z " fill="#D87B24" transform="translate(184,480)"/>
<path d="M0 0 C0.93045933 2.55144824 1.08564091 3.74006478 0.22265625 6.359375 C-0.16019531 7.14828125 -0.54304688 7.9371875 -0.9375 8.75 C-1.50791016 9.94882812 -1.50791016 9.94882812 -2.08984375 11.171875 C-2.39019531 11.77515625 -2.69054687 12.3784375 -3 13 C-4.1484375 11.296875 -4.1484375 11.296875 -5 9 C-4.1015625 6.640625 -4.1015625 6.640625 -2.625 4.25 C-2.14289063 3.45078125 -1.66078125 2.6515625 -1.1640625 1.828125 C-0.77992188 1.22484375 -0.39578125 0.6215625 0 0 Z " fill="#D87D16" transform="translate(471,349)"/>
<path d="M0 0 C-0.33 0.66 -0.66 1.32 -1 2 C-1.99 2 -2.98 2 -4 2 C-4 2.66 -4 3.32 -4 4 C-5.98 4 -7.96 4 -10 4 C-9 1 -9 1 -7.25 -0.25 C-4.47275102 -1.17574966 -2.78428335 -0.77341204 0 0 Z " fill="#DF7C18" transform="translate(167,39)"/>
<path d="M0 0 C0.66 0 1.32 0 2 0 C3.00496852 3.01490557 3.10335303 5.04181692 3.0625 8.1875 C3.05347656 9.08855469 3.04445313 9.98960937 3.03515625 10.91796875 C3.02355469 11.60503906 3.01195312 12.29210937 3 13 C2.34 12.67 1.68 12.34 1 12 C0.5859375 9.27734375 0.5859375 9.27734375 0.375 5.9375 C0.30023438 4.83277344 0.22546875 3.72804687 0.1484375 2.58984375 C0.09945313 1.73519531 0.05046875 0.88054687 0 0 Z " fill="#D57C21" transform="translate(484,199)"/>
<path d="M0 0 C0.66 0 1.32 0 2 0 C0.75023244 3.65316671 0.32901247 4.78065836 -3 7 C-2.25 2.25 -2.25 2.25 0 0 Z M-7 8 C-6.01 8.33 -5.02 8.66 -4 9 C-5.32 9.99 -6.64 10.98 -8 12 C-7.67 10.68 -7.34 9.36 -7 8 Z " fill="#FEFAE9" transform="translate(389,168)"/>
<path d="M0 0 C0 0.66 0 1.32 0 2 C-0.99 2 -1.98 2 -3 2 C-3 2.66 -3 3.32 -3 4 C-0.69 4 1.62 4 4 4 C4 4.33 4 4.66 4 5 C-0.455 5.495 -0.455 5.495 -5 6 C-5.33 4.68 -5.66 3.36 -6 2 C-2.25 0 -2.25 0 0 0 Z " fill="#FEEAC3" transform="translate(105,341)"/>
<path d="M0 0 C4.29 0 8.58 0 13 0 C9.3750203 1.81248985 7.62740416 2.31888915 3.75 2.625 C2.85796875 2.69976562 1.9659375 2.77453125 1.046875 2.8515625 C0.37140625 2.90054687 -0.3040625 2.94953125 -1 3 C-0.67 2.01 -0.34 1.02 0 0 Z " fill="#FEE7C7" transform="translate(331,307)"/>
<path d="M0 0 C1.79623856 0.39649413 3.58698435 0.81793452 5.375 1.25 C6.37273437 1.48203125 7.37046875 1.7140625 8.3984375 1.953125 C11 3 11 3 12.3515625 5.109375 C12.56554687 5.73328125 12.77953125 6.3571875 13 7 C11.68528432 6.71848913 10.37324233 6.42446661 9.0625 6.125 C8.33160156 5.96257812 7.60070312 5.80015625 6.84765625 5.6328125 C5 5 5 5 4 3 C1.98330173 1.86649466 1.98330173 1.86649466 0 1 C0 0.67 0 0.34 0 0 Z " fill="#E17E1B" transform="translate(152,466)"/>
<path d="M0 0 C0.74609375 1.734375 0.74609375 1.734375 1 4 C-0.65234375 6.140625 -0.65234375 6.140625 -2.9375 8.25 C-3.68902344 8.95640625 -4.44054687 9.6628125 -5.21484375 10.390625 C-5.80394531 10.92171875 -6.39304687 11.4528125 -7 12 C-7 8.47967572 -6.29648649 7.5614657 -4 5 C-3.34 5 -2.68 5 -2 5 C-1.855625 4.360625 -1.71125 3.72125 -1.5625 3.0625 C-1 1 -1 1 0 0 Z " fill="#DA6F06" transform="translate(433,409)"/>
<path d="M0 0 C2.1875 0.3125 2.1875 0.3125 4 1 C3.01 1.33 2.02 1.66 1 2 C0.67 2.99 0.34 3.98 0 5 C-3.5625 6.6875 -3.5625 6.6875 -7 8 C-7 7.34 -7 6.68 -7 6 C-5.69417053 4.96434215 -4.35622245 3.96873032 -3 3 C-2.505 2.4225 -2.01 1.845 -1.5 1.25 C-1.005 0.8375 -0.51 0.425 0 0 Z " fill="#E47113" transform="translate(363,463)"/>
<path d="M0 0 C-3.51187196 2.40814077 -5.72656908 3.36629408 -10 3 C-10.33 2.01 -10.66 1.02 -11 0 C-3.57142857 -1.28571429 -3.57142857 -1.28571429 0 0 Z " fill="#FBDDBF" transform="translate(169,320)"/>
<path d="M0 0 C0.33 0 0.66 0 1 0 C1 4.62 1 9.24 1 14 C0.01 13.67 -0.98 13.34 -2 13 C-2.23509196 8.18061476 -1.45184478 4.53701494 0 0 Z " fill="#E67C13" transform="translate(487,291)"/>
<path d="M0 0 C3.96 0 7.92 0 12 0 C7.60171741 2.1991413 4.81449408 2.51855059 0 3 C0 2.01 0 1.02 0 0 Z " fill="#FEE6CB" transform="translate(136,337)"/>
<path d="M0 0 C0.66 0 1.32 0 2 0 C2.99 2.97 3.98 5.94 5 9 C2 8 2 8 0 5 C-0.125 2.3125 -0.125 2.3125 0 0 Z " fill="#D96F18" transform="translate(472,162)"/>
<path d="M0 0 C0.99 0.33 1.98 0.66 3 1 C0.03 4.96 0.03 4.96 -3 9 C-3.66 8.01 -4.32 7.02 -5 6 C-3.35 4.02 -1.7 2.04 0 0 Z " fill="#DB6A0E" transform="translate(449,389)"/>
<path d="M0 0 C0.99 0.33 1.98 0.66 3 1 C1.02 3.97 -0.96 6.94 -3 10 C-3.33 9.34 -3.66 8.68 -4 8 C-2.98446183 4.9533855 -1.79237442 2.68856164 0 0 Z " fill="#DE650C" transform="translate(459,373)"/>
<path d="M0 0 C-0.33 0.99 -0.66 1.98 -1 3 C-4.63 3 -8.26 3 -12 3 C-7.74582052 0.87291026 -4.71473296 0 0 0 Z " fill="#FCDEB9" transform="translate(272,196)"/>
<path d="M0 0 C0.66 0 1.32 0 2 0 C2.19622241 4.21878192 1.80230168 7.17010894 0 11 C-0.33 11 -0.66 11 -1 11 C-1.125 3.375 -1.125 3.375 0 0 Z " fill="#D77E23" transform="translate(30,184)"/>
<path d="M0 0 C0.66 0 1.32 0 2 0 C3.7265625 1.96875 3.7265625 1.96875 5.625 4.5 C6.25664063 5.3353125 6.88828125 6.170625 7.5390625 7.03125 C8.02117187 7.6809375 8.50328125 8.330625 9 9 C8.67 9.66 8.34 10.32 8 11 C7.236875 10.071875 6.47375 9.14375 5.6875 8.1875 C4.24047652 6.44038358 2.82178472 4.82793008 1.1875 3.25 C0 2 0 2 0 0 Z " fill="#DC7D1C" transform="translate(61,388)"/>
<path d="M0 0 C1.47968324 0.14049518 2.95874516 0.28754826 4.4375 0.4375 C5.67306641 0.55931641 5.67306641 0.55931641 6.93359375 0.68359375 C9 1 9 1 10 2 C10.04080783 3.99958364 10.04254356 6.00045254 10 8 C8 6 8 6 7 3 C3.48809191 1.77030122 3.48809191 1.77030122 0 1 C0 0.67 0 0.34 0 0 Z " fill="#FCDFBF" transform="translate(183,226)"/>
<path d="M0 0 C-1.98 0.66 -3.96 1.32 -6 2 C-6 2.66 -6 3.32 -6 4 C-7.65 4 -9.3 4 -11 4 C-7.84441727 0.34616736 -4.73375145 -1.57791715 0 0 Z " fill="#DB7A20" transform="translate(362,467)"/>
<path d="M0 0 C0.38800781 0.49113281 0.77601562 0.98226563 1.17578125 1.48828125 C3.61211696 3.50725753 5.06930672 3.30898805 8.1875 3.1875 C9.08855469 3.16042969 9.98960938 3.13335937 10.91796875 3.10546875 C11.60503906 3.07066406 12.29210937 3.03585937 13 3 C12.67 3.66 12.34 4.32 12 5 C8.37 5 4.74 5 1 5 C0.67 3.35 0.34 1.7 0 0 Z " fill="#F6871F" transform="translate(98,344)"/>
<path d="M0 0 C2.64 0.33 5.28 0.66 8 1 C7.67 1.66 7.34 2.32 7 3 C4.36 3 1.72 3 -1 3 C-0.67 2.01 -0.34 1.02 0 0 Z " fill="#F38924" transform="translate(290,188)"/>
<path d="M0 0 C3.34373475 0.55728913 6.03312999 1.35173889 9 3 C9 3.66 9 4.32 9 5 C6.69 4.67 4.38 4.34 2 4 C2 3.34 2 2.68 2 2 C1.34 1.34 0.68 0.68 0 0 Z " fill="#E55D0F" transform="translate(358,43)"/>
<path d="M0 0 C0 3 0 3 -1.53125 4.60546875 C-2.1809375 5.12753906 -2.830625 5.64960938 -3.5 6.1875 C-4.1496875 6.71730469 -4.799375 7.24710937 -5.46875 7.79296875 C-5.9740625 8.19128906 -6.479375 8.58960938 -7 9 C-5.64978174 4.58110387 -3.73884332 2.65654657 0 0 Z " fill="#D56F03" transform="translate(419,425)"/>
<path d="M0 0 C1.41377341 2.63904371 2.37240135 5.07120629 3 8 C1.68 7.67 0.36 7.34 -1 7 C-1.33 5.02 -1.66 3.04 -2 1 C-1.34 0.67 -0.68 0.34 0 0 Z " fill="#E67415" transform="translate(36,336)"/>
<path d="M0 0 C0.66 0.33 1.32 0.66 2 1 C0.515 2.485 0.515 2.485 -1 4 C-0.34 4.66 0.32 5.32 1 6 C-0.65 6.33 -2.3 6.66 -4 7 C-3.6875 5.0625 -3.6875 5.0625 -3 3 C-2.01 2.67 -1.02 2.34 0 2 C0 1.34 0 0.68 0 0 Z " fill="#FBD29E" transform="translate(226,272)"/>
<path d="M0 0 C0.66 0.33 1.32 0.66 2 1 C-0.84936103 4.00765886 -3.23511958 6.27845212 -7 8 C-6.02133662 6.85373678 -5.04205413 5.70800212 -4.0625 4.5625 C-3.51722656 3.92441406 -2.97195312 3.28632813 -2.41015625 2.62890625 C-1.63204305 1.73008851 -0.84063472 0.84063472 0 0 Z " fill="#FCE0B8" transform="translate(235,264)"/>
<path d="M0 0 C2.12046792 3.53411321 2.53199289 6.94393835 3 11 C2.34 11 1.68 11 1 11 C1 10.01 1 9.02 1 8 C0.34 8 -0.32 8 -1 8 C-0.67 5.36 -0.34 2.72 0 0 Z " fill="#DE6810" transform="translate(487,207)"/>
<path d="M0 0 C0.66 0.33 1.32 0.66 2 1 C-0.65654657 4.73884332 -2.58110387 6.64978174 -7 8 C-6.02133662 6.85373678 -5.04205413 5.70800212 -4.0625 4.5625 C-3.51722656 3.92441406 -2.97195312 3.28632812 -2.41015625 2.62890625 C-1.63204305 1.73008851 -0.84063472 0.84063472 0 0 Z " fill="#DB6804" transform="translate(85,92)"/>
<path d="M0 0 C2.475 0.495 2.475 0.495 5 1 C5.12375 1.639375 5.2475 2.27875 5.375 2.9375 C5.684375 3.9584375 5.684375 3.9584375 6 5 C6.66 5.33 7.32 5.66 8 6 C7.01 6 6.02 6 5 6 C5 5.34 5 4.68 5 4 C2.525 3.01 2.525 3.01 0 2 C0 1.34 0 0.68 0 0 Z " fill="#E17B18" transform="translate(384,59)"/>
<path d="M0 0 C2.31 0.33 4.62 0.66 7 1 C7 1.66 7 2.32 7 3 C8.32 3.66 9.64 4.32 11 5 C6.87248551 4.39301257 3.6678852 2.96189209 0 1 C0 0.67 0 0.34 0 0 Z " fill="#D5781B" transform="translate(351,41)"/>
<path d="M0 0 C0.99 0.33 1.98 0.66 3 1 C1.875 2.5 1.875 2.5 0 4 C-3.1875 4.1875 -3.1875 4.1875 -6 4 C-4.03617993 2.49440461 -2.21736634 1.10868317 0 0 Z " fill="#E15D0E" transform="translate(155,41)"/>
<path d="M0 0 C0.66 0.33 1.32 0.66 2 1 C1.67 1.66 1.34 2.32 1 3 C-1.06640625 3.4140625 -1.06640625 3.4140625 -3.5625 3.625 C-4.38878906 3.69976562 -5.21507812 3.77453125 -6.06640625 3.8515625 C-7.02353516 3.92503906 -7.02353516 3.92503906 -8 4 C-5.31143836 2.20762558 -3.0466145 1.01553817 0 0 Z " fill="#F19B48" transform="translate(315,316)"/>
<path d="M0 0 C0 0.66 0 1.32 0 2 C-5.45769231 5.10096154 -5.45769231 5.10096154 -8.203125 4.58984375 C-8.79609375 4.39519531 -9.3890625 4.20054687 -10 4 C-8.71086513 3.32845067 -7.41859796 2.66291141 -6.125 2 C-5.40570313 1.62875 -4.68640625 1.2575 -3.9453125 0.875 C-2 0 -2 0 0 0 Z " fill="#F0973D" transform="translate(356,302)"/>
<path d="M0 0 C1.24546405 2.49092811 0.7767578 3.41080733 0 6 C-0.99 6 -1.98 6 -3 6 C-3 6.99 -3 7.98 -3 9 C-3.66 9 -4.32 9 -5 9 C-3.7508258 5.54074837 -2.32472205 2.85306797 0 0 Z " fill="#EF9940" transform="translate(389,270)"/>
<path d="M0 0 C0 0.66 0 1.32 0 2 C-2.70879335 3.35439668 -5.00933268 3.06501451 -8 3 C-6.14481495 -0.71037009 -3.79223618 -1.26407873 0 0 Z " fill="#FFF1E0" transform="translate(232,274)"/>
<path d="M0 0 C0 0.66 0 1.32 0 2 C0.66 2.33 1.32 2.66 2 3 C-4.625 2.25 -4.625 2.25 -8 0 C-4.94736336 -0.98120464 -3.05263664 -0.98120464 0 0 Z " fill="#FEF7E2" transform="translate(104,225)"/>
<path d="M0 0 C2 2 2 2 2 5 C0.625 6.5625 0.625 6.5625 -1 8 C-1.66 8.66 -2.32 9.32 -3 10 C-2.49287967 6.28111761 -1.88391785 3.26545761 0 0 Z " fill="#FEE2C2" transform="translate(426,193)"/>
<path d="M0 0 C0.66 0.33 1.32 0.66 2 1 C-0.64 2.98 -3.28 4.96 -6 7 C-5 3 -5 3 -2.5625 1.1875 C-1.716875 0.795625 -0.87125 0.40375 0 0 Z " fill="#DC7D1C" transform="translate(107,73)"/>
<path d="M0 0 C0.66 0.33 1.32 0.66 2 1 C1.01 2.32 0.02 3.64 -1 5 C-2.32 4.67 -3.64 4.34 -5 4 C-3 1 -3 1 0 0 Z " fill="#DD7C1B" transform="translate(392,446)"/>
<path d="M0 0 C0.66 0.33 1.32 0.66 2 1 C-0.40436026 4.60654039 -1.94679607 4.85452932 -6 6 C-4.98545548 3.4636387 -4.3146444 2.20648539 -2 0.6875 C-1.34 0.460625 -0.68 0.23375 0 0 Z " fill="#E08019" transform="translate(411,431)"/>
<path d="M0 0 C1.98 0.99 1.98 0.99 4 2 C4 2.66 4 3.32 4 4 C4.66 4 5.32 4 6 4 C6.33 4.99 6.66 5.98 7 7 C4.13302508 5.71480435 2.02392288 4.42870746 0 2 C0 1.34 0 0.68 0 0 Z " fill="#D86D0B" transform="translate(94,427)"/>
<path d="M0 0 C-3.08888522 2.05925681 -3.70935927 2.2390374 -7.1875 2.125 C-9.0746875 2.063125 -9.0746875 2.063125 -11 2 C-7.00042393 -0.06874624 -4.43559483 -1.37656391 0 0 Z " fill="#F79B46" transform="translate(307,321)"/>
<path d="M0 0 C-0.33 0.66 -0.66 1.32 -1 2 C-3.3140622 2.73075648 -5.64828869 3.40138258 -8 4 C-7.25 2.0625 -7.25 2.0625 -6 0 C-3.40292416 -1.05506206 -2.5386068 -1.2693034 0 0 Z " fill="#E07E1E" transform="translate(130,59)"/>
</svg>
